<?xml version="1.0" encoding="UTF-8" standalone="no"?><!DOCTYPE svg PUBLIC "-//W3C//DTD SVG 1.1//EN" "http://www.w3.org/Graphics/SVG/1.1/DTD/svg11.dtd"><svg width="100%" height="100%" viewBox="0 0 260 260" version="1.1" xmlns="http://www.w3.org/2000/svg" xmlns:xlink="http://www.w3.org/1999/xlink" xml:space="preserve" xmlns:serif="http://www.serif.com/" style="fill-rule:evenodd;clip-rule:evenodd;stroke-linejoin:round;stroke-miterlimit:2;"><rect id="Artboard3" x="0" y="0" width="260" height="260" style="fill:none;"/><path d="M158.271,116.348l-96.245,-0c-2.454,0.609 -15.574,4.29 -25.365,15.306l0,30.132l0.065,-0.003l0.537,4.341c4.677,37.664 36.833,66.072 74.82,66.118c37.989,-0.046 70.146,-28.454 74.822,-66.118l0.538,-4.341l0.064,0.003l0,-25.064c-9.782,-14.993 -26.438,-19.68 -29.236,-20.374" style="fill:#fff;fill-rule:nonzero;"/><path d="M234.921,98.695c5.29,-5.291 8.112,-12.571 8.133,-20.801c-8.232,0.021 -15.512,2.843 -20.802,8.134c-4.108,4.108 -6.707,9.424 -7.682,15.444c0.039,0.333 0.097,0.661 0.133,0.996c0.158,1.484 0.024,2.948 -0.357,4.349c8.137,-0.071 15.332,-2.88 20.575,-8.122" style="fill:#d70100;fill-rule:nonzero;"/><path d="M207.629,116.382c0.021,8.229 2.844,15.509 8.134,20.8c5.29,5.291 12.57,8.112 20.8,8.132c-0.021,-8.229 -2.843,-15.509 -8.133,-20.8c-5.291,-5.291 -12.571,-8.112 -20.801,-8.132" style="fill:#d70100;fill-rule:nonzero;"/><path d="M112.175,27.757c-48.436,0 -88.441,32.554 -93.063,75.724c-0.092,0.871 0.332,1.548 0.704,1.962c0.779,0.866 2.03,1.384 3.348,1.384l178.022,0c1.316,0 2.567,-0.517 3.346,-1.384c0.034,-0.038 0.067,-0.088 0.101,-0.129c0.046,-1.339 0.155,-2.657 0.319,-3.955c-5.683,-42.106 -45.141,-73.602 -92.777,-73.602" style="fill:#d70100;fill-rule:nonzero;"/><path d="M63.606,137.207l12.905,16.819l-12.905,16.818l12.342,-0l12.905,-16.818l-12.905,-16.819l-12.342,-0Z" style="fill-rule:nonzero;"/><path d="M216.028,136.915c-5.147,-5.148 -7.917,-12.111 -8.021,-20.154c8.047,0.103 15.011,2.872 20.156,8.019c5.147,5.148 7.917,12.112 8.02,20.157c-8.046,-0.102 -15.009,-2.871 -20.155,-8.022m-11.765,-31.72l-0.01,-0.003c-0.707,0.786 -1.854,1.259 -3.067,1.259l-178.021,0c-1.214,0 -2.362,-0.473 -3.07,-1.259c-0.321,-0.358 -0.686,-0.938 -0.609,-1.669c4.602,-42.98 44.447,-75.391 92.688,-75.391c22.928,0 44.907,7.433 61.888,20.93c16.928,13.454 27.762,32.025 30.512,52.3c-0.161,1.293 -0.266,2.584 -0.311,3.833m-58.536,27.913c-5.724,0 -10.907,1.414 -14.694,4.234c-16.21,-3.196 -31.277,-10.3 -44.11,-20.622l71.257,-0.009c2.884,0.718 16.678,4.7 26.389,16.66c-7.332,2.629 -14.894,4.385 -22.619,5.251c-3.852,-3.678 -9.688,-5.514 -16.223,-5.514m40.806,32.969c-4.651,37.461 -36.657,65.742 -74.449,65.79c-37.79,-0.048 -69.796,-28.329 -74.449,-65.79l-0.538,-4.341l-0.061,-0.196l-0,-29.743c9.687,-10.83 22.586,-14.464 24.989,-15.074l10.894,-0.001c14.604,14.339 32.643,24.42 52.408,29.083c-0.376,1.441 -0.597,2.989 -0.597,4.677c-0,11.596 9.401,20.996 20.997,20.996c11.596,0 20.996,-9.4 20.996,-20.996c-0,-1.017 -0.096,-1.972 -0.236,-2.9c7.029,-1.022 13.924,-2.741 20.645,-5.123l-0,18.934l-0.599,4.684Zm28.543,-63.648c-0.021,-0.193 -0.048,-0.381 -0.074,-0.572c-0.018,-0.126 -0.037,-0.252 -0.052,-0.375c0.975,-5.963 3.592,-11.214 7.568,-15.188c5.148,-5.148 12.11,-7.917 20.156,-8.021c-0.103,8.044 -2.873,15.008 -8.019,20.155c-5.068,5.069 -11.916,7.832 -19.826,8.005c0.305,-1.329 0.388,-2.675 0.247,-4.004m15.442,10.982c4.308,-1.865 8.14,-4.461 11.399,-7.717c8.291,-8.292 12.115,-19.961 10.77,-32.86l-0.43,-4.143l-4.145,-0.432c-12.888,-1.351 -24.564,2.477 -32.858,10.772c-1.515,1.513 -2.92,3.202 -4.185,5.028c-6.367,-19.061 -19.001,-35.447 -36.575,-47.431c-18.004,-12.276 -39.553,-18.766 -62.32,-18.766c-31.35,0 -59.519,12.482 -78.509,32.516c-13.419,14.158 -22.255,32.087 -24.391,52.048c-0.377,3.509 0.753,6.928 3.182,9.633c1.744,1.939 4.04,3.347 6.655,4.086l-0,9.589c-3.854,2.323 -7.015,5.661 -9.142,9.656c-0.194,0.346 -0.379,0.704 -0.593,1.15c-0.86,1.763 -1.488,3.707 -1.868,5.781c-0.039,0.199 -0.074,0.396 -0.109,0.601c-0.078,0.496 -0.151,0.989 -0.201,1.502c-0.1,0.953 -0.149,1.804 -0.149,2.602c-0,0.874 0.05,1.76 0.155,2.71c0.076,0.754 0.204,1.464 0.316,2.068l0.018,0.097c0.011,0.07 0.022,0.138 0.035,0.197c0.47,2.346 1.253,4.517 2.326,6.45c3.658,6.957 10.439,11.803 18.175,13.005c7.129,40.76 42.279,70.401 83.723,70.582l0.377,0.003l0.375,-0.003l-0,-0.003c41.369,-0.263 76.427,-29.875 83.546,-70.579c7.737,-1.202 14.515,-6.048 18.168,-12.999c1.08,-1.942 1.865,-4.113 2.331,-6.448l0.056,-0.305c0.089,-0.481 0.181,-0.988 0.254,-1.537c5.895,3.285 12.523,4.948 19.706,4.948c1.659,0 3.346,-0.088 5.012,-0.263l4.143,-0.431l0.431,-4.145c1.345,-12.897 -2.48,-24.566 -10.771,-32.855c-1.484,-1.487 -3.132,-2.866 -4.907,-4.107" style="fill-rule:nonzero;"/></svg>