<?xml version="1.0" encoding="UTF-8"?>
<svg width="24px" height="24px" viewBox="0 0 24 24" version="1.1" xmlns="http://www.w3.org/2000/svg" xmlns:xlink="http://www.w3.org/1999/xlink">
    <!-- Generator: Sketch 55.1 (78136) - https://sketchapp.com -->
    <title>Icon/Eventbrite</title>
    <desc>Created with Sketch.</desc>
    <g id="Icon/Eventbrite" stroke="none" stroke-width="1" fill="none" fill-rule="evenodd">
        <path d="M11.04,5.568 C13.632,4.992 16.128,6.048 17.568,7.968 L6.336,10.56 C6.72,8.16 8.544,6.144 11.04,5.568 Z M17.664,14.976 C16.8,16.224 15.456,17.184 13.92,17.472 C11.328,18.048 8.832,16.992 7.392,14.976 L18.624,12.48 L20.448,12.096 L24,11.328 C24,10.56 23.904,9.792 23.712,9.12 C22.272,2.88 16.128,-0.864 9.888,0.576 C3.648,2.016 -0.192,8.064 1.248,14.112 C2.688,20.16 8.832,24 15.072,22.56 C18.72,21.696 21.6,19.296 22.944,16.224 C23.04,16.128 17.664,14.976 17.664,14.976 Z" id="Shape" fill="#FFFFFF"></path>
    </g>
</svg>