<?xml version="1.0" encoding="UTF-8"?>
<svg width="24px" height="24px" viewBox="0 0 24 24" version="1.1" xmlns="http://www.w3.org/2000/svg" xmlns:xlink="http://www.w3.org/1999/xlink">
    <!-- Generator: Sketch 55.1 (78136) - https://sketchapp.com -->
    <title>Icon/Slack</title>
    <desc>Created with Sketch.</desc>
    <g id="Icon/Slack" stroke="none" stroke-width="1" fill="none" fill-rule="evenodd">
        <path d="M5.042,15.165 C5.03925556,16.5561059 3.91310162,17.6836005 2.522,17.688 C1.13011721,17.6846992 0.00274902659,16.556884 4.4408921e-16,15.165 C0.00385032175,13.7740601 1.13105744,12.6477468 2.522,12.645 L5.042,12.645 L5.042,15.165 L5.042,15.165 Z M6.313,15.165 C6.31684805,13.7744493 7.44344792,12.6482964 8.834,12.645 C10.2245521,12.6482964 11.351152,13.7744493 11.355,15.165 L11.355,21.478 C11.3517036,22.8691044 10.2251029,23.9961519 8.834,24 C7.44289706,23.9961519 6.31629636,22.8691044 6.313,21.478 L6.313,15.165 L6.313,15.165 Z M8.834,5.042 C7.44367505,5.03815714 6.31739447,3.91232331 6.313,2.522 C6.31629636,1.13089564 7.44289706,0.00384805566 8.834,0 C10.2251029,0.00384805566 11.3517036,1.13089564 11.355,2.522 L11.355,5.042 L8.834,5.042 Z M8.834,6.313 C10.2247139,6.31684557 11.3511544,7.44328615 11.355,8.834 C11.3511544,10.2247139 10.2247139,11.3511544 8.834,11.355 L2.522,11.355 C1.13089564,11.3517036 0.00384805566,10.2251029 0,8.834 C0.00384805566,7.44289706 1.13089564,6.31629636 2.522,6.313 L8.834,6.313 Z M18.956,8.834 C18.9598481,7.44289706 20.0868956,6.31629636 21.478,6.313 C22.8691044,6.31629636 23.9961519,7.44289706 24,8.834 C23.9961519,10.2251029 22.8691044,11.3517036 21.478,11.355 L18.956,11.355 L18.956,8.834 L18.956,8.834 Z M17.688,8.834 C17.6841497,10.2254922 16.5564948,11.3522532 15.165,11.355 C13.7744493,11.351152 12.6482964,10.2245521 12.645,8.834 L12.645,2.522 C12.6477468,1.13105744 13.7740601,0.00385032175 15.165,0 C16.556884,0.00274902659 17.6846992,1.13011721 17.688,2.522 L17.688,8.834 L17.688,8.834 Z M15.165,18.956 C16.556884,18.958749 17.6846992,20.0861172 17.688,21.478 C17.6846992,22.8698828 16.556884,23.997251 15.165,24 C13.7740601,23.9961497 12.6477468,22.8689426 12.645,21.478 L12.645,18.956 L15.165,18.956 L15.165,18.956 Z M15.165,17.688 C13.7736706,17.6841476 12.647197,16.556333 12.645,15.165 C12.6482987,13.7746111 13.7746111,12.6482987 15.165,12.645 L21.478,12.645 C22.8689426,12.6477468 23.9961497,13.7740601 24,15.165 C23.997251,16.556884 22.8698828,17.6846992 21.478,17.688 L15.165,17.688 L15.165,17.688 Z" id="Shape" fill="#FFFFFF"></path>
    </g>
</svg>