<?xml version="1.0" encoding="UTF-8"?>
<svg width="24px" height="24px" viewBox="0 0 24 24" version="1.1" xmlns="http://www.w3.org/2000/svg" xmlns:xlink="http://www.w3.org/1999/xlink">
    <!-- Generator: Sketch 55.1 (78136) - https://sketchapp.com -->
    <title>Icon/Twitter</title>
    <desc>Created with Sketch.</desc>
    <g id="Icon/Twitter" stroke="none" stroke-width="1" fill="none" fill-rule="evenodd">
        <path d="M22.99584,5.23008 C22.14624,5.60352 21.23904,5.85792 20.28384,5.97408 C21.25728,5.38752 22.00608,4.46304 22.36032,3.36 C21.44736,3.8928 20.43552,4.28064 19.3584,4.49664 C18.49824,3.576 17.27232,3 15.91104,3 C13.30272,3 11.18784,5.11488 11.18784,7.72032 C11.18784,8.09472 11.23104,8.45472 11.30976,8.79936 C7.38336,8.61408 3.90336,6.72864 1.5744,3.8784 C1.16448,4.57152 0.93504,5.37696 0.93504,6.2544 C0.93504,7.896 1.77024,9.33888 3.03552,10.18656 C2.2608,10.1616 1.53216,9.94848 0.89664,9.5952 L0.89664,9.65376 C0.89664,11.94336 2.52192,13.8528 4.6848,14.28768 C4.28832,14.39424 3.86976,14.45184 3.44064,14.45184 C3.1392,14.45184 2.85024,14.42304 2.56128,14.36928 C3.16704,16.24416 4.90848,17.6112 6.98112,17.6496 C5.36832,18.91584 3.32448,19.6704 1.1232,19.6704 C0.7488,19.6704 0.37536,19.64832 -9.41469125e-14,19.60608 C2.10144,20.94432 4.57728,21.72672 7.25472,21.72672 C15.94656,21.72672 20.69376,14.53056 20.69376,8.30016 C20.69376,8.09952 20.69376,7.89696 20.67936,7.69536 C21.60192,7.03392 22.40736,6.19776 23.04096,5.24928 L22.99584,5.23008 Z" id="Path" fill="#FFFFFF"></path>
    </g>
</svg>