<?xml version="1.0" encoding="utf-8"?>
<svg version="1.1" xmlns="http://www.w3.org/2000/svg" xmlns:xlink="http://www.w3.org/1999/xlink" x="0px" y="0px" viewBox="0 0 1000 1000" enable-background="new 0 0 1000 1000" xml:space="preserve">
<g><g><path fill="white" id="WhatsApp" d="M990,487.4c0,263.7-215.4,477.4-481.1,477.4c-84.4,0-163.6-21.6-232.6-59.4L10,990l86.8-256.1c-43.8-71.9-69-156.3-69-246.5C27.8,223.7,243.2,10,508.9,10C774.6,10,990,223.7,990,487.4z M508.9,86c-223,0-404.5,180-404.5,401.4c0,87.8,28.6,169.2,77.1,235.3l-50.5,149.1l155.4-49.4c63.9,41.9,140.4,66.4,222.5,66.4c223,0,404.5-180,404.5-401.3C913.4,266.1,731.9,86,508.9,86z M751.8,597.3c-3-4.9-10.8-7.8-22.6-13.7c-11.8-5.8-69.8-34.2-80.6-38c-10.8-3.9-18.7-5.9-26.5,5.8c-7.8,11.7-30.5,38-37.3,45.9c-6.9,7.8-13.8,8.8-25.6,3c-11.8-5.8-49.8-18.2-94.8-58.1c-35-31-58.7-69.3-65.6-81c-6.9-11.7-0.7-18,5.2-23.9c5.3-5.2,11.8-13.7,17.7-20.5c5.9-6.8,7.9-11.7,11.8-19.5c4-7.8,2-14.6-1-20.5c-2.9-5.8-26.5-63.4-36.4-86.9c-9.8-23.4-19.6-19.5-26.5-19.5c-6.9,0-14.7-1-22.6-1c-7.9,0-20.6,2.9-31.5,14.6c-10.8,11.7-41.3,40-41.3,97.6c0,57.6,42.2,113.2,48.1,121c5.9,7.8,81.6,129.8,201.4,176.6c119.9,46.8,119.9,31.2,141.5,29.3c21.6-2,69.8-28.3,79.6-55.6C754.8,625.6,754.8,602.2,751.8,597.3z"/></g><g></g><g></g><g></g><g></g><g></g><g></g><g></g><g></g><g></g><g></g><g></g><g></g><g></g><g></g><g></g></g>
</svg>