<svg id="Layer_1" data-name="Layer 1" xmlns="http://www.w3.org/2000/svg" viewBox="0 0 187.84 64.83"><title>Embarc_Logo_svg</title><polygon points="79.48 22.5 68.91 22.5 68.91 17.56 79.02 17.56 79.02 14.11 68.91 14.11 68.91 9.95 79.42 9.95 79.42 6.5 64.83 6.5 64.83 25.94 79.48 25.94 79.48 22.5" style="fill:#3b3836"/><path d="M163.93,81.75V72.17c0-3.8-2.08-5.36-4.63-5.36A5.08,5.08,0,0,0,154.8,69,3.88,3.88,0,0,0,151,66.81,4.54,4.54,0,0,0,147,68.89a17.11,17.11,0,0,0-.16-1.74H142.9c0,1.25,0,2.5,0,3.76V81.75h4V73.59c0-2.5.7-3.51,2.34-3.51s2.1,1.22,2.1,2.73v8.94h4V73.4c0-2.24.69-3.34,2.4-3.34s2,1.28,2,2.6v9.09Z" transform="translate(-60.86 -55.8)" style="fill:#3b3836"/><path d="M180.71,74.19c0-4.1-2-7.38-6-7.38-2.37,0-3.57,1-4.18,1.89V61.16h-4V77c0,1.59,0,3.19,0,4.77h3.87a6.94,6.94,0,0,0,.15-1.38c.71,1.06,1.67,1.72,3.84,1.72C178.56,82.08,180.71,78.37,180.71,74.19Zm-10.31.34c0-3,.82-4.48,3.13-4.48s3.08,1.78,3.08,4.22c0,2.75-1.07,4.6-3.13,4.6C171.13,78.87,170.4,77,170.4,74.53Z" transform="translate(-60.86 -55.8)" style="fill:#3b3836"/><path d="M188.82,72.65c-4.28,0-6.95,1.53-6.95,4.86,0,2.26,1.48,4.57,5,4.57,2.58,0,3.57-.94,4.1-1.76a5.8,5.8,0,0,0,.21,1.43H195a31.77,31.77,0,0,1-.2-3.78V71.84c0-3.48-2.13-5-6-5-4.43,0-6,2.08-6.26,4.67h3.85c.18-1.06.56-1.78,2.26-1.78,1.88,0,2.25,1,2.25,2.06v.89Zm2.08,2.45v.38c0,1.93-.31,3.72-2.88,3.72a1.88,1.88,0,0,1-2.1-2c0-1.41.9-2.15,3.34-2.15Z" transform="translate(-60.86 -55.8)" style="fill:#3b3836"/><path d="M206.1,70.67V66.81a4.66,4.66,0,0,0-4.68,2.9c0-.78-.06-2.23-.11-2.56h-4c0,1.22,0,2.51,0,4V81.74h4V75.38C201.42,71.38,203.17,70.59,206.1,70.67Z" transform="translate(-60.86 -55.8)" style="fill:#3b3836"/><path d="M213.56,70a2.28,2.28,0,0,1,2.5,2H220c-.08-1.65-1.45-5.18-6.37-5.18-4.45,0-7.08,3.43-7.08,7.74s2.34,7.53,6.88,7.53c4.35,0,6.06-2.62,6.57-5h-4a2.5,2.5,0,0,1-2.5,1.92c-1.77,0-2.88-1.42-2.88-4.53C210.66,71.59,211.71,70,213.56,70Z" transform="translate(-60.86 -55.8)" style="fill:#3b3836"/><path d="M134.07,104.66c-3.76,0-4.92-3.46-4.92-6.75,0-3.53,1.34-6.65,4.81-6.65a3.81,3.81,0,0,1,4.09,3h4.2c-.47-3.25-3-6.29-8.16-6.29-6.27,0-9.28,4.78-9.28,10.11,0,5.53,2.92,9.89,9.08,9.89,4.87,0,7.6-2.64,8.38-6.27h-4.22A3.87,3.87,0,0,1,134.07,104.66Z" transform="translate(-60.86 -55.8)" style="fill:#3b3836"/><path d="M151,92.75c-4.63,0-7.35,3.18-7.35,7.69,0,4.35,2.64,7.58,7.16,7.58s7.27-3.25,7.27-7.66C158.1,95.78,155.32,92.75,151,92.75Zm-.1,12.11c-1.94,0-3.15-1.66-3.15-4.47,0-3.09,1.22-4.48,3.1-4.48s3.13,1.45,3.13,4.5C154,103.2,152.9,104.86,150.92,104.86Z" transform="translate(-60.86 -55.8)" style="fill:#3b3836"/><rect x="99.46" y="31.3" width="4.04" height="20.58" style="fill:#3b3836"/><rect x="106.11" y="31.3" width="4.04" height="20.58" style="fill:#3b3836"/><path d="M180.37,92.75c-4.69,0-7,3.27-7,7.85,0,3.83,2.09,7.42,6.9,7.42,4.58,0,6.18-2.93,6.69-4.72h-4a2.29,2.29,0,0,1-2.55,1.56c-2,0-2.92-1.78-2.93-3.61H187a9.56,9.56,0,0,0,.05-1.23C187.09,96.38,185.38,92.75,180.37,92.75Zm-2.88,6c.16-1.8.94-3.13,2.87-3.13S183,97.07,183,98.77Z" transform="translate(-60.86 -55.8)" style="fill:#3b3836"/><path d="M195.88,95.91a2.28,2.28,0,0,1,2.5,2h4c-.08-1.65-1.45-5.18-6.37-5.18-4.44,0-7.07,3.43-7.07,7.74s2.33,7.53,6.88,7.53c4.34,0,6-2.62,6.56-5h-4a2.49,2.49,0,0,1-2.5,1.92c-1.77,0-2.87-1.42-2.87-4.53C193,97.53,194,95.91,195.88,95.91Z" transform="translate(-60.86 -55.8)" style="fill:#3b3836"/><path d="M209.73,89.14h-4v4h-2.25v3h2.25v7.67c0,2.56.94,4.08,3.78,4.08a9.26,9.26,0,0,0,2.72-.28v-2.78a6.19,6.19,0,0,1-.92.05c-1.21,0-1.54-.43-1.54-1.54v-7.2h2.86v-3h-2.86Z" transform="translate(-60.86 -55.8)" style="fill:#3b3836"/><rect x="153.77" y="37.28" width="4.04" height="14.6" style="fill:#3b3836"/><rect x="153.77" y="31.3" width="4.04" height="3.6" style="fill:#3b3836"/><path d="M227.73,104.11h0c-.29-1.75-1.45-6.08-2.84-11h-4.35l4.95,14.59h4.25l5.15-14.59h-4C229.57,97.3,228.14,101.7,227.73,104.11Z" transform="translate(-60.86 -55.8)" style="fill:#3b3836"/><path d="M248.69,100c0-3.64-1.7-7.27-6.71-7.27-4.69,0-7,3.27-7,7.85,0,3.83,2.09,7.42,6.89,7.42,4.59,0,6.18-2.93,6.7-4.72h-4a2.31,2.31,0,0,1-2.55,1.56c-2,0-2.93-1.78-2.93-3.61h9.63A9.56,9.56,0,0,0,248.69,100Zm-9.6-1.25c.16-1.8.94-3.13,2.88-3.13s2.65,1.43,2.68,3.13Z" transform="translate(-60.86 -55.8)" style="fill:#3b3836"/><polygon points="25.93 0 0 0 0 12.96 25.92 12.96 25.92 25.93 0 25.93 0 38.9 25.92 38.9 25.92 51.86 0 51.86 0 64.83 25.93 64.83 25.93 51.86 51.85 51.86 51.85 38.9 25.93 38.9 25.93 25.93 51.85 25.93 51.85 12.96 25.93 12.96 25.93 0" style="fill:#3b3836"/></svg>