<?xml version="1.0" encoding="utf-8"?>
<svg version="1.1" id="Layer_1" xmlns="http://www.w3.org/2000/svg" xmlns:xlink="http://www.w3.org/1999/xlink" x="0px" y="0px"
	 width="70px" height="53px" viewBox="0 0 70 53" style="enable-background:new 0 0 70 53;" xml:space="preserve">
<style type="text/css">
	.st0{fill:#E3731C;}
	.st1{fill:#E669A2;}
	.st2{fill:#F3BC87;}
	.st3{fill:#EE9C34;}
	.st4{fill:#F3BE26;}
	.st5{fill:#DB4E18;}
	.st6{fill:#E88C14;}
	.st7{fill:#D1390D;}
	.st8{fill:#D85604;}
	.st9{fill:#C22303;}
	.st10{fill:#C14303;}
	.st11{fill:#AD1B02;}
</style>
<g>
	<polygon class="st0" points="66.24,16.474 66.24,6.923 59.739,6.923 59.739,3.049 57.218,3.049 57.218,0.563 44.402,0.563 
		44.402,3.049 44.402,6.923 44.402,13.285 44.402,16.474 44.402,22.838 52.417,22.838 57.218,22.838 59.739,22.838 66.24,22.838 
		69.5,22.838 69.5,16.474 	"/>
	<g>
		<g>
			<path d="M47.221,34.825c-2.221,0.355-3.356,1.98-3.356,4.839c0,2.877,1.512,4.801,3.831,4.801c1.079,0,2.059-0.355,4.12-1.356
				v2.327c-2.473,1.124-3.929,1.471-5.921,1.471c-2.157,0-3.675-0.567-4.914-1.819c-1.27-1.259-1.906-2.921-1.906-4.772
				c0-4.118,3.077-6.904,7.573-6.904c2.986,0,5.039,1.351,5.039,3.335c0,1.278-0.956,2.157-2.374,2.157
				c-0.728,0-1.326-0.189-2.091-0.629V34.825z"/>
			<path d="M36.263,40.317c1.991-2.486,2.694-3.489,2.694-4.71c0-1.215-0.974-2.194-2.275-2.194c-0.802,0-1.523,0.375-1.875,0.765
				v5.064l-3.262,4.306v-9.816h-3.102l-5.156,8.467v-8.467h-1.782l-4.681,1.13v1.185l2.553,0.257v10.384h3.3l4.945-8.05v8.05h3.614
				L36.263,40.317z"/>
			<path d="M6.968,45.089c0.351,0.016,0.505,0.016,0.727,0.016c2.658,0,4.083-1.642,4.083-4.788c0-2.664-1.166-4.081-3.318-4.081
				c-0.358,0-0.734,0.043-1.493,0.134V45.089z M6.968,50.763l2.14,0.471l0,1.203H0.713v-1.203l1.913-0.471V36.237H0.5v-1.246
				l5.136-1.545h1.333v1.735c2.405-1.417,3.231-1.668,4.465-1.668c2.849,0,4.952,2.603,4.952,6.207c0,4.166-2.806,6.969-7.227,6.969
				c-0.5,0-1.332-0.03-2.19-0.128V50.763z"/>
		</g>
		<g>
			<rect x="66.24" y="16.474" class="st1" width="3.26" height="6.364"/>
			<rect x="57.218" y="3.049" class="st2" width="2.521" height="3.875"/>
			<rect x="44.402" y="0.563" class="st3" width="12.816" height="2.486"/>
			<rect x="44.402" y="3.049" class="st0" width="12.816" height="3.875"/>
			<rect x="59.739" y="6.923" class="st4" width="6.5" height="9.551"/>
			<rect x="59.739" y="16.474" class="st5" width="6.5" height="6.364"/>
			<rect x="57.218" y="6.923" class="st6" width="2.521" height="9.551"/>
			<rect x="57.218" y="16.474" class="st7" width="2.521" height="6.364"/>
			<polygon class="st8" points="52.417,16.474 57.218,16.474 57.218,6.923 44.402,6.923 44.402,13.285 52.417,13.285 			"/>
			<rect x="52.417" y="16.474" class="st9" width="4.801" height="6.364"/>
			<rect x="44.402" y="13.285" class="st10" width="8.015" height="3.189"/>
			<rect x="44.402" y="16.474" class="st11" width="8.015" height="6.364"/>
			<rect x="31.551" y="22.838" class="st11" width="12.851" height="3.182"/>
		</g>
	</g>
</g>
</svg>
