<svg width="222" height="50" class="is-visible" xmlns="http://www.w3.org/2000/svg" viewBox="0 0 1098.59 242.8"><defs><style>.cls-1{fill:#151b24;}.cls-2{fill:#00afab;}.cls-3{fill:#006072;}.cls-4{fill:#008995;}.cls-5{fill:#3cd5af;}</style></defs><g id="Layer_2" data-name="Layer 2"><g id="Layer_1-2" data-name="Layer 1"><g id="Logotype"><path class="cls-1" d="M26.12,139.19H17.46v29.58h8.8A15.35,15.35,0,0,0,42,153.33c0-7.8-5.06-14.14-15.88-14.14m24.39,80.37c-14.72-24.52-21.36-36.36-25-37.51H17.46v37.51H0V124.47H25.69c24.68,0,33.91,12.27,33.91,26.84,0,12.7-8.66,21.21-17.6,25v.15c4.33,2.45,13.85,18.9,28.42,43.14Z"></path><polygon class="cls-1" points="201.78 219.56 201.78 124.47 219.24 124.47 219.24 204.85 253.29 204.85 253.29 219.56 201.78 219.56"></polygon><rect class="cls-1" x="294.8" y="124.47" width="17.46" height="95.09"></rect><path class="cls-1" d="M398.57,159.68A96.31,96.31,0,0,1,395,147.84h-.15a75.56,75.56,0,0,1-3.46,11.55l-8.23,22.08h23.09Zm22.5,59.88-9.38-23.81H377.78L369,219.56H351.81L388.75,124h12.7l38.24,95.53Z"></path><path class="cls-1" d="M514.52,138.18c-17.9,0-30.3,13-30.3,34.49s12.4,34.19,30.3,34.19c17.6,0,30-12.84,30-34.19,0-20.93-11.85-34.49-30-34.49m35.06,69.11a47.05,47.05,0,0,1-27.27,13.42c5.34,4.91,11,8.52,19.05,8.52a31.72,31.72,0,0,0,10.1-1.73l3.89,12c-5.34,2.46-12,3.33-18.61,3.33-16.45,0-28-11-36.65-23.09a44.86,44.86,0,0,1-19.34-10.39c-9.52-8.8-14.86-21.51-14.86-36.22,0-14.14,5.05-26.7,13.7-35.64,8.53-8.67,20.64-13.85,34.93-13.85,14.72,0,26.84,5,35.35,13.56S563,158.23,563,172.23s-4.61,26.41-13.42,35.06"></path><path class="cls-1" d="M667.11,210.47c-6.64,6.65-16.45,10.54-30.59,10.54-13.42,0-23.24-3.18-29.58-9.38-6.78-6.5-9.38-16.46-9.38-27V124.47H615v59c0,6.94,1.87,12.56,5.63,16.75,3.6,3.89,9.23,5.91,16.15,5.91,8.08,0,13.71-2.16,17.32-5.91s5.06-9.24,5.06-15.88V124.47h17.46v59.31c0,10.82-3,20.2-9.53,26.69"></path><polygon class="cls-1" points="738.75 178.29 769.49 178.29 769.49 163.72 738.75 163.72 738.75 139.04 764.52 139.04 777.19 124.47 721.29 124.47 721.29 219.56 774.24 219.56 774.24 204.99 738.75 204.99 738.75 178.29"></polygon><polygon class="cls-1" points="120.84 178.29 151.58 178.29 151.58 163.72 120.84 163.72 120.84 139.04 146.61 139.04 159.28 124.47 103.38 124.47 103.38 219.56 156.34 219.56 156.34 204.99 120.84 204.99 120.84 178.29"></polygon><path class="cls-1" d="M839.77,221c-13.42,0-22.95-4.33-29.29-8.65l7.07-12.85c5.19,3.61,12.55,7.22,21.5,7.22,7.35,0,15.73-3,15.73-11,0-13.57-23.09-16-34.64-29a24.44,24.44,0,0,1-6.2-17c0-14.15,11.11-26.13,31-26.13,10.1,0,18.18,2.46,23.37,5.34l-.29,15.58c-7.35-4-14.43-6.63-22.22-6.63s-13.71,3.31-13.71,9.67c0,17.6,41.12,16.59,41.12,46.17,0,16.74-14.71,27.27-33.47,27.27"></path><polygon class="cls-1" points="979.04 124.47 903.09 124.47 903.09 139.04 930.65 139.04 930.65 219.56 948.25 219.56 948.25 139.04 964.47 139.04 979.04 124.47"></polygon></g><g id="Registration_Mark" data-name="Registration Mark"><path class="cls-1" d="M1004.41,118.54a14.26,14.26,0,0,1,6.81,1.79,12.85,12.85,0,0,1,5.18,5.13,13.91,13.91,0,0,1,0,13.83,12.89,12.89,0,0,1-5.12,5.13,13.9,13.9,0,0,1-13.79,0,13,13,0,0,1-5.13-5.13,13.88,13.88,0,0,1,0-13.83,12.82,12.82,0,0,1,5.19-5.13A14.21,14.21,0,0,1,1004.41,118.54Zm0,2.3a11.75,11.75,0,0,0-5.68,1.5,10.66,10.66,0,0,0-4.33,4.27,11.53,11.53,0,0,0,0,11.53,11,11,0,0,0,4.29,4.28,11.55,11.55,0,0,0,11.49,0,10.75,10.75,0,0,0,4.28-4.28,11.59,11.59,0,0,0,0-11.53,10.57,10.57,0,0,0-4.32-4.27A11.79,11.79,0,0,0,1004.41,120.84Zm-6.08,19.22V125.15h5.12a12.31,12.31,0,0,1,3.8.42,3.64,3.64,0,0,1,1.88,1.44,3.83,3.83,0,0,1,.69,2.18,4,4,0,0,1-1.16,2.85,4.62,4.62,0,0,1-3.1,1.36,4,4,0,0,1,1.27.79,16.83,16.83,0,0,1,2.2,2.95l1.82,2.92h-2.94l-1.32-2.35a12.2,12.2,0,0,0-2.51-3.47,3.13,3.13,0,0,0-1.93-.51h-1.41v6.33Zm2.41-8.39h2.91a4.77,4.77,0,0,0,2.86-.62,2,2,0,0,0,.76-1.66,2,2,0,0,0-.37-1.18,2.15,2.15,0,0,0-1-.78,7.62,7.62,0,0,0-2.42-.26h-2.73Z"></path></g><g id="Exponent"><polygon class="cls-2" points="1036.73 61.86 1036.73 0 1098.59 0 1036.73 61.86"></polygon><polygon class="cls-3" points="1036.73 185.56 1036.73 123.7 1098.59 123.7 1036.73 185.56"></polygon><polygon class="cls-4" points="1098.59 61.86 1036.73 61.86 1098.59 0 1098.59 61.86"></polygon><polygon class="cls-3" points="1098.59 123.71 1098.59 61.85 1036.73 61.85 1098.59 123.71"></polygon><polygon class="cls-4" points="1036.73 123.71 1098.59 123.71 1036.73 61.85 1036.73 123.71"></polygon><polygon class="cls-5" points="913.03 61.86 974.89 61.86 974.89 0 913.03 61.86"></polygon><polygon class="cls-5" points="974.88 0 1036.74 0 1036.74 61.86 974.88 0"></polygon><polygon class="cls-2" points="974.88 61.86 974.88 0 1036.74 61.86 974.88 61.86"></polygon></g></g></g></svg>