<?xml version="1.0" encoding="UTF-8"?>
<!-- Generated by Pixelmator Pro 3.2.3 -->
<svg width="260" height="260" viewBox="0 0 260 260" xmlns="http://www.w3.org/2000/svg" xmlns:xlink="http://www.w3.org/1999/xlink">
    <path id="Path" fill="#646464" stroke="none" d="M 63.605999 137.207001 L 76.511002 154.026001 L 63.605999 170.843994 L 75.947998 170.843994 L 88.852997 154.026001 L 75.947998 137.207001 L 63.605999 137.207001 Z"/>
    <path id="path1" fill="#646464" stroke="none" d="M 216.028 136.914993 C 210.880997 131.766998 208.110992 124.804001 208.007004 116.761002 C 216.054001 116.863998 223.018005 119.632996 228.162994 124.779999 C 233.309998 129.927994 236.080002 136.891998 236.182999 144.936996 C 228.136993 144.835007 221.173996 142.065994 216.028 136.914993 M 204.263 105.195007 L 204.253006 105.192001 C 203.546005 105.977997 202.399002 106.450989 201.186005 106.450989 L 23.165001 106.450989 C 21.951 106.450989 20.802999 105.977997 20.094999 105.192001 C 19.774 104.834 19.409 104.253998 19.486 103.52301 C 24.087999 60.542999 63.932999 28.132004 112.174004 28.132004 C 135.102005 28.132004 157.080994 35.565002 174.061996 49.061996 C 190.990005 62.515991 201.824005 81.087006 204.574005 101.362 C 204.412994 102.654999 204.307999 103.945999 204.263 105.195007 M 145.727005 133.108002 C 140.003006 133.108002 134.820007 134.522003 131.033005 137.341995 C 114.822998 134.145996 99.755997 127.041992 86.922997 116.720001 L 158.179993 116.710999 C 161.063995 117.429001 174.858002 121.411011 184.569 133.371002 C 177.237 136 169.675003 137.755997 161.949997 138.621994 C 158.098007 134.944 152.261993 133.108002 145.727005 133.108002 M 186.533005 166.076996 C 181.882004 203.537994 149.876007 231.819 112.084 231.867004 C 74.293999 231.819 42.287998 203.537994 37.634998 166.076996 L 37.097 161.735992 L 37.035999 161.539993 L 37.035999 131.796997 C 46.723 120.96701 59.622002 117.333008 62.025002 116.722992 L 72.918999 116.722 C 87.523003 131.061005 105.561996 141.141998 125.327003 145.804993 C 124.950996 147.246002 124.730003 148.794006 124.730003 150.481995 C 124.730003 162.078003 134.130997 171.477997 145.727005 171.477997 C 157.322998 171.477997 166.723007 162.078003 166.723007 150.481995 C 166.723007 149.464996 166.626999 148.509995 166.487 147.582001 C 173.516006 146.559998 180.410995 144.841003 187.132004 142.459 L 187.132004 161.393005 L 186.533005 166.076996 Z M 215.076004 102.429001 C 215.054993 102.235992 215.028 102.048004 215.001999 101.856995 C 214.983994 101.731003 214.964996 101.605011 214.949997 101.481995 C 215.925003 95.518997 218.542007 90.268005 222.518005 86.294006 C 227.666 81.145996 234.628006 78.376999 242.673996 78.27301 C 242.570999 86.317001 239.800995 93.281006 234.654999 98.428009 C 229.587006 103.497009 222.738998 106.26001 214.828995 106.432999 C 215.134003 105.104004 215.216995 103.757996 215.076004 102.429001 M 230.518005 113.411011 C 234.826004 111.54599 238.658005 108.949997 241.917007 105.694 C 250.207993 97.402008 254.031998 85.733002 252.686996 72.834 L 252.257004 68.69101 L 248.112 68.259003 C 235.223999 66.90799 223.548004 70.735992 215.253998 79.031006 C 213.738998 80.544006 212.334 82.233002 211.069 84.05899 C 204.701996 64.998001 192.067993 48.612 174.494003 36.627991 C 156.490005 24.352005 134.940994 17.862 112.174004 17.862 C 80.823997 17.862 52.654999 30.343994 33.665001 50.377991 C 20.246 64.536011 11.41 82.464996 9.274 102.425995 C 8.897 105.934998 10.027 109.354004 12.456 112.05899 C 14.2 113.998001 16.496 115.406006 19.111 116.144989 L 19.111 125.734009 C 15.257 128.057007 12.096 131.395004 9.969 135.389999 C 9.775 135.735992 9.59 136.093994 9.376 136.539993 C 8.516 138.302994 7.888 140.246994 7.508 142.320999 C 7.469 142.520004 7.434 142.716995 7.399 142.921997 C 7.321 143.417999 7.248 143.910995 7.198 144.423996 C 7.098 145.376999 7.049 146.227997 7.049 147.026001 C 7.049 147.899994 7.099 148.785995 7.204 149.735992 C 7.28 150.490005 7.408 151.199997 7.52 151.804001 L 7.538 151.901001 C 7.549 151.970993 7.56 152.039001 7.573 152.098007 C 8.043 154.444 8.826 156.615005 9.899 158.548004 C 13.557 165.505005 20.337999 170.350998 28.073999 171.552994 C 35.202999 212.313004 70.352997 241.953995 111.796997 242.134995 L 112.174004 242.138 L 112.549004 242.134995 L 112.549004 242.132004 C 153.917999 241.869003 188.975998 212.257004 196.095001 171.552994 C 203.832001 170.350998 210.610001 165.505005 214.263 158.554001 C 215.343002 156.612 216.128006 154.440994 216.593994 152.106003 L 216.649994 151.800995 C 216.738998 151.320007 216.830994 150.813004 216.904007 150.264008 C 222.798996 153.548996 229.427002 155.212006 236.610001 155.212006 C 238.268997 155.212006 239.955994 155.123993 241.621994 154.949005 L 245.764999 154.518005 L 246.195999 150.373001 C 247.541 137.475998 243.716003 125.807007 235.425003 117.518005 C 233.940994 116.031006 232.292999 114.652008 230.518005 113.411011"/>
</svg>
