<?xml version="1.0" encoding="UTF-8"?><svg xmlns="http://www.w3.org/2000/svg" xmlns:xlink="http://www.w3.org/1999/xlink" viewBox="0 0 646.23 180.46"><defs><style>.r{fill:#fff;mix-blend-mode:overlay;}.s{fill:url(#k);mix-blend-mode:multiply;}.t{isolation:isolate;}.u{fill:url(#p);}.v{fill:url(#i);}.w{fill:url(#h);}.x{fill:url(#e);}.y{fill:url(#n);}.a`{mix-blend-mode:overlay;}.aa{fill:#55abe1;}.ab{mask:url(#m);}.ac{fill:#55abe1;}.ad{fill:#f37622;}</style><linearGradient id="e" x1="90.23" y1="180.46" x2="90.23" y2="0" gradientTransform="matrix(1, 0, 0, 1, 0, 0)" gradientUnits="userSpaceOnUse"><stop offset="0" stop-color="#58595b"/><stop offset=".04" stop-color="#5e5f61"/><stop offset=".34" stop-color="#868789"/><stop offset=".6" stop-color="#a3a5a7"/><stop offset=".83" stop-color="#b5b7b9"/><stop offset="1" stop-color="#bcbec0"/></linearGradient><linearGradient id="h" x1="27.88" y1="27.87" x2="152.59" y2="152.59" gradientTransform="matrix(1, 0, 0, 1, 0, 0)" gradientUnits="userSpaceOnUse"><stop offset="0" stop-color="#414042"/><stop offset=".07" stop-color="#575759"/><stop offset=".15" stop-color="#68696b"/><stop offset=".2" stop-color="#6f7072"/><stop offset=".26" stop-color="#909293"/><stop offset=".35" stop-color="#bfc0c2"/><stop offset=".4" stop-color="#d1d3d4"/><stop offset=".5" stop-color="#f1f2f2"/><stop offset=".54" stop-color="#e2e3e4"/><stop offset=".6" stop-color="#d1d3d4"/><stop offset=".61" stop-color="#cccecf"/><stop offset=".67" stop-color="#a4a5a7"/><stop offset=".72" stop-color="#87888a"/><stop offset=".77" stop-color="#757678"/><stop offset=".8" stop-color="#6f7072"/><stop offset=".87" stop-color="#58585a"/><stop offset=".95" stop-color="#474648"/><stop offset="1" stop-color="#414042"/></linearGradient><radialGradient id="i" cx="114.02" cy="61.23" fx="114.02" fy="61.23" r="109.21" gradientTransform="matrix(1, 0, 0, 1, 0, 0)" gradientUnits="userSpaceOnUse"><stop offset="0" stop-color="#faa21f"/><stop offset=".36" stop-color="#e97123"/><stop offset=".5" stop-color="#e35e26"/></radialGradient><linearGradient id="k" x1="87.83" y1="84.73" x2="87.83" y2="97.02" gradientTransform="matrix(1, 0, 0, 1, 0, 0)" gradientUnits="userSpaceOnUse"><stop offset="0" stop-color="#231f20" stop-opacity=".2"/><stop offset="1" stop-color="#000"/></linearGradient><mask id="m" x="30.95" y="84.73" width="113.75" height="12.16" maskUnits="userSpaceOnUse"><g><path class="r" d="M47,86.73h-13.14c-1.6,0-2.91,1.3-2.91,2.9v2.37c0,1.6,1.3,2.9,2.91,2.9h13.14c1.6,0,2.91-1.3,2.91-2.9v-2.37c0-1.6-1.3-2.9-2.91-2.9Zm-10.17,4.71v-1.25c0-.5,.32-.9,.71-.9h5.95c.39,0,.71,.4,.71,.9v1.25c0,.5-.32,.9-.71,.9h-5.95c-.39,0-.71-.4-.71-.9Z"/><path class="r" d="M101.4,86.73h-13.14c-1.6,0-2.91,1.3-2.91,2.9v2.37c0,1.6,1.31,2.9,2.91,2.9h13.14c1.61,0,2.91-1.3,2.91-2.9v-2.37c0-1.6-1.31-2.9-2.91-2.9Zm-10.17,4.71v-1.25c0-.5,.32-.9,.71-.9h5.95c.39,0,.72,.4,.72,.9v1.25c0,.5-.32,.9-.72,.9h-5.95c-.39,0-.71-.4-.71-.9Z"/><path class="r" d="M121.63,86.73h-13.14c-1.6,0-2.91,1.3-2.91,2.9v2.37c0,1.6,1.3,2.9,2.91,2.9h13.14c1.61,0,2.91-1.3,2.91-2.9v-2.37c0-1.6-1.3-2.9-2.91-2.9Zm-10.17,4.71v-1.25c0-.5,.32-.9,.71-.9h5.95c.39,0,.72,.4,.72,.9v1.25c0,.5-.32,.9-.72,.9h-5.95c-.39,0-.71-.4-.71-.9Z"/><path class="r" d="M141.79,86.73h-13.14c-1.61,0-2.91,1.3-2.91,2.9v2.37c0,1.6,1.3,2.9,2.91,2.9h13.14c1.6,0,2.91-1.3,2.91-2.9v-2.37c0-1.6-1.3-2.9-2.91-2.9Zm-10.17,4.71v-1.25c0-.5,.32-.9,.72-.9h5.95c.39,0,.71,.4,.71,.9v1.25c0,.5-.32,.9-.71,.9h-5.95c-.39,0-.72-.4-.72-.9Z"/><polygon class="r" points="55.07 86.95 53.33 86.95 51.63 86.95 51.21 86.95 51.21 87.36 51.21 89.3 51.21 89.71 51.63 89.71 52.92 89.71 52.92 94.61 52.92 95.02 53.33 95.02 58.03 95.02 58.44 95.02 58.44 94.61 58.44 87.36 58.44 86.95 58.03 86.95 55.07 86.95"/><polygon class="r" points="63.63 86.95 61.89 86.95 60.19 86.95 59.77 86.95 59.77 87.36 59.77 89.3 59.77 89.71 60.19 89.71 61.48 89.71 61.48 94.61 61.48 95.02 61.89 95.02 66.59 95.02 67 95.02 67 94.61 67 87.36 67 86.95 66.59 86.95 63.63 86.95"/><polygon class="r" points="71.92 86.95 70.18 86.95 68.47 86.95 68.06 86.95 68.06 87.36 68.06 89.3 68.06 89.71 68.47 89.71 69.76 89.71 69.76 94.61 69.76 95.02 70.18 95.02 74.88 95.02 75.29 95.02 75.29 94.61 75.29 87.36 75.29 86.95 74.88 86.95 71.92 86.95"/><polygon class="r" points="80.55 86.95 78.81 86.95 77.1 86.95 76.69 86.95 76.69 87.36 76.69 89.3 76.69 89.71 77.1 89.71 78.39 89.71 78.39 94.61 78.39 95.02 78.81 95.02 83.5 95.02 83.92 95.02 83.92 94.61 83.92 87.36 83.92 86.95 83.5 86.95 80.55 86.95"/></g></mask><linearGradient id="n" x1="30.95" y1="90.81" x2="144.7" y2="90.81" gradientTransform="matrix(1, 0, 0, 1, 0, 0)" gradientUnits="userSpaceOnUse"><stop offset="0" stop-color="#bcbec0"/><stop offset=".18" stop-color="#d9dadb"/><stop offset=".35" stop-color="#eeeeef"/><stop offset=".53" stop-color="#fafafb"/><stop offset=".69" stop-color="#fff"/><stop offset=".76" stop-color="#f8f8f8"/><stop offset=".85" stop-color="#e6e7e8"/><stop offset=".96" stop-color="#c9cacc"/><stop offset="1" stop-color="#bcbec0"/></linearGradient><linearGradient id="p" x1="90.23" y1="163.88" x2="90.23" y2="16.57" gradientTransform="matrix(1, 0, 0, 1, 0, 0)" gradientUnits="userSpaceOnUse"><stop offset=".25" stop-color="#f47621"/><stop offset=".75" stop-color="#f89e1e"/></linearGradient></defs><g class="t"><g id="a"/><g id="b"><g id="c"><g><g><polygon class="ad" points="202.95 145.78 211.66 145.78 208.98 162.55 213.09 162.55 215.77 145.78 224.83 145.78 225.45 141.88 203.57 141.88 202.95 145.78"/><polygon class="ad" points="236.42 162.55 256.04 162.55 256.66 158.65 241.15 158.65 241.94 153.7 251.47 153.7 252.08 149.91 242.54 149.91 243.21 145.73 258.57 145.73 259.18 141.88 239.72 141.88 236.42 162.55"/><path class="ad" d="M291.66,141.88h-11.66c-1.74,0-2.97,.37-3.76,1.14-.77,.75-1.29,2.05-1.61,3.99l-1.63,10.22c-.31,1.96-.19,3.3,.37,4.1,.59,.82,1.74,1.22,3.52,1.22h11.67c1.73,0,2.95-.37,3.73-1.13,.75-.74,1.27-2.04,1.58-3.99l.46-2.85-3.95-.98-.8,5h-12.69l2.05-12.82h12.68l-.72,4.57,4.24-.88,.36-2.26c.31-1.97,.2-3.32-.35-4.1-.58-.82-1.72-1.22-3.5-1.22Z"/><polygon class="ad" points="331.3 149.85 316.66 149.85 317.93 141.88 313.82 141.88 310.52 162.55 314.63 162.55 316.03 153.76 330.68 153.76 329.27 162.55 333.38 162.55 336.68 141.88 332.57 141.88 331.3 149.85"/><path class="ad" d="M372.38,153.06c-.19,1.2-.32,2.12-.39,2.81-.19-.29-.39-.55-.61-.81l-12.98-13.18h-2.58l-3.3,20.67h3.9l1.91-11.97c.14-.88,.25-1.66,.32-2.32,.08,.11,.17,.21,.25,.32,.1,.12,.17,.21,.23,.27l13.24,13.7h2.4l3.3-20.67h-3.9l-1.78,11.18Z"/><path class="ad" d="M415.36,141.88h-14.24c-1.75,0-2.98,.38-3.78,1.16-.76,.75-1.28,2.05-1.59,3.97l-1.63,10.22c-.31,1.95-.2,3.28,.36,4.08,.58,.83,1.74,1.24,3.54,1.24h14.24c1.72,0,2.94-.37,3.72-1.13,.76-.74,1.29-2.05,1.59-3.99l1.63-10.22c.31-1.96,.2-3.3-.35-4.09-.58-.83-1.72-1.23-3.49-1.23Zm.02,3.9l-2.04,12.82h-15.32l2.05-12.82h15.31Z"/><polygon class="ad" points="443.14 141.88 439.03 141.88 435.73 162.55 454.27 162.55 454.9 158.6 440.47 158.6 443.14 141.88"/><path class="ad" d="M491.48,141.88h-13.94c-1.75,0-2.99,.38-3.77,1.15-.77,.75-1.29,2.05-1.59,3.97l-1.63,10.22c-.31,1.95-.2,3.28,.36,4.08,.58,.83,1.74,1.24,3.54,1.24h13.94c1.72,0,2.94-.37,3.72-1.13,.76-.74,1.28-2.04,1.59-3.99l1.63-10.22c.31-1.96,.2-3.3-.35-4.09-.58-.83-1.72-1.23-3.49-1.23Zm.01,3.9l-2.04,12.82h-15.02l2.05-12.82h15.02Z"/><path class="ad" d="M532.89,141.88h-13.17c-1.75,0-2.99,.38-3.77,1.15-.76,.75-1.28,2.04-1.59,3.96l-1.63,10.23c-.32,1.95-.2,3.29,.35,4.09,.58,.84,1.74,1.25,3.54,1.25h13.16c1.74,0,2.97-.37,3.76-1.14,.77-.75,1.29-2.05,1.6-3.99l1.12-7h-12.24l-.59,3.7h8.13l-.72,4.49h-14.24l2.05-12.82h14.24l-.48,2.99,4.26-.92,.14-.89c.29-1.84,.16-3.11-.43-3.89-.6-.8-1.75-1.19-3.5-1.19Z"/><polygon class="ad" points="552.11 162.55 556.22 162.55 559.51 141.88 555.4 141.88 552.11 162.55"/><polygon class="ad" points="575.16 162.55 595.08 162.55 595.7 158.65 579.89 158.65 580.68 153.7 590.21 153.7 590.82 149.91 581.29 149.91 581.96 145.73 597.6 145.73 598.22 141.88 578.47 141.88 575.16 162.55"/><path class="ad" d="M633.9,143.07c-.61-.8-1.75-1.19-3.49-1.19h-11.21c-1.73,0-2.95,.38-3.73,1.15-.75,.75-1.27,2.05-1.58,3.98l-.27,1.69c-.31,1.96-.2,3.29,.34,4.08,.57,.83,1.72,1.24,3.5,1.24h12.1l-.73,4.59h-13.57l.53-3.33-4.06,1.03-.15,.93c-.32,1.96-.2,3.3,.37,4.1,.59,.82,1.74,1.22,3.52,1.22h12.08c1.73,0,2.95-.37,3.73-1.13,.76-.74,1.28-2.04,1.59-3.99l.35-2.18c.31-1.96,.19-3.29-.38-4.08-.59-.82-1.73-1.21-3.48-1.21h-12.15l.66-4.18h12.95l-.49,3.08,3.88-1.2,.13-.79c.29-1.78,.14-3.02-.45-3.8Z"/></g><g><g><path class="ac" d="M228.7,36.14c-.36-.53-2.38-3.06-7.6-3.06h-11.56c-.32,0-1.94,.06-2.57,1.28-.42,.82-.23,1.82,.58,2.96l54.92,64.62c.4,.61,3.17,4.48,8.96,4.48h12.57c.14,0,1.42-.09,1.92-1.18,.63-1.38-.66-2.99-1.09-3.53-2.3-2.79-53.44-62.41-56.14-65.56Z"/><path class="ac" d="M420.68,36.66c-1.53-1.7-2.97-3.31-7.26-3.31h-10.24c-.31-.02-1.84-.06-2.45,1.08-.68,1.26,.44,2.71,.79,3.17,2.07,2.84,19.22,25.36,19.38,25.55,.12,.16,1.18,1.61,2.79,1.78,.09,0,.19,.02,.3,.02,.6,0,1.41-.19,2.23-.94l6.46-5.32c.12-.09,1.2-.94,1.39-2.4,.13-1.02-.19-2.03-.94-2.99-1.87-2.55-12.27-16.43-12.43-16.64Z"/><path class="ac" d="M623.37,65.22l-.43-.52c-1.92-2.3-3.34-3.71-8.03-3.71h-22.43c-1.24-.09-3.78,.52-4.64,3.47l-1.29,6.68c-.04,.2-.4,1.95,.66,3.27,.69,.86,1.75,1.29,3.16,1.29h35.71c.06,0,.13,0,.2,0,.8,0,2.07-.38,2.46-1.93,.23-1.25-1.07-3.34-5.37-8.57Z"/></g><g><g><path class="ac" d="M238.65,80.09c-1.79-2.19-3.5-3.96-3.59-4.06-.97-.93-3.59-2.06-6.58,.38-2.97,2.57-25.73,23.5-27.19,24.84-2.1,1.54-3,2.85-2.66,3.87,.16,.5,.65,1.1,2.05,1.1h12.15s.04,0,.08,0c.5,0,3.04-.13,5.81-2.59,2.86-2.42,19.02-17.37,19.75-18.05,.88-.92,2.06-3.25,.19-5.48Z"/><path class="ac" d="M294.06,34.48c-.16-.51-.65-1.11-2.05-1.14l-12.2-.05c-.12,0-2.83-.05-5.91,2.6-2.81,2.41-19.06,17.28-19.79,17.95-.88,.9-2.05,3.2-.23,5.49,1.81,2.23,3.52,4.01,3.61,4.11,.53,.53,1.57,1.12,2.89,1.12,1.06,0,2.31-.38,3.63-1.49,2.99-2.51,25.94-23.39,27.38-24.71,2.09-1.54,2.99-2.85,2.66-3.89Z"/><path class="ac" d="M390.63,20.39c-4.58-3.16-16.7-2.9-20.69-2.81-.4,0-.7,.02-.88,.02h-55.43c-.5-.08-2.56-.3-4.29,.92-1.24,.87-2.02,2.25-2.3,4.07l-13.62,77.5c-.16,.52-.79,2.91,.46,4.64,.77,1.06,2.02,1.6,3.73,1.6h56.56c.7,0,1.39,.02,2.08,.04,.7,.02,1.41,.04,2.13,.04,1.08,0,2.18-.04,3.3-.2,2.11-.28,4.18-.95,5.92-1.56,6.71-2.32,15.41-7.41,18.73-18.49,2.96-9.67,2.73-17.2-.65-21.78-1.51-2.04-3.6-3.43-6.14-4.12,4.11-2,10.51-6.37,13.45-14.92,1.79-6.02,2.41-15.18,2.44-15.56,.02-.24,.38-5.85-4.79-9.38Zm-18.89,48.24c.91,1.13,.67,2.38,.66,2.46l-.02,.17c0,.12-.68,12.34-3.22,17.19-2.2,4.46-8.46,4.18-8.57,4.17h-46.41c-1.09,0-1.84-.26-2.22-.78-.55-.74-.36-1.97-.24-2.38l3.5-20.43c.58-2.33,3.52-2.44,4.08-2.44,.04,0,.07,0,.08,0h45.72c3.28,0,5.58,.7,6.66,2.03Zm-53.1-18.55l2.96-16.83c.49-1.76,2.17-1.95,2.88-1.95,.13,0,.23,0,.29,.01h46.62c3.84,0,5.46,.9,6.15,1.65,.57,.63,.55,1.23,.55,1.3v.11c-.04,3.36-.64,12.73-2.94,15.65-2.59,3.33-6.87,3.31-6.96,3.3h-47.22c-1,0-1.7-.25-2.07-.74-.58-.76-.38-2.08-.26-2.52Z"/><path class="ac" d="M482.75,34.5c-.43-1.25-2.04-1.39-3.22-1.39h-8.17c-.63-.07-3.53-.17-7.57,3.35-4.12,3.47-34.36,30.27-34.62,30.5-.12,.09-2.98,2.39-4,7.87l-4.7,26.1c-.11,.42-.57,2.45,.56,3.95,.72,.95,1.86,1.44,3.4,1.44h6.69s.07,0,.11,0c.79,0,3.72-.35,4.56-5.5,.86-4.97,4-22.91,4.01-22.98,0-.04,.43-3.89,3.18-6.37,3-2.74,37.86-33.61,38.16-33.88,.49-.38,2.05-1.72,1.58-3.09Z"/><path class="ac" d="M567.64,34.85c-.74-1.08-2.26-1.63-4.5-1.63h-68.6c-.14,0-3.51-.19-6.13,2.14-2.68,2.29-6.36,5.82-6.35,5.82-.46,.37-1.93,1.68-1.49,3.04,.44,1.35,2.27,1.45,2.93,1.48h28.14c.3,0,1.22,.07,1.7,.61,.36,.41,.47,1.06,.33,1.95l-9.51,53.32c-.11,.4-.5,2.02,.43,3.29,.65,.89,1.73,1.35,3.21,1.35h7.08c.07,0,.15,0,.23,0,1.39,0,3.84-1.01,4.48-5,.69-4.31,9.01-52.27,9.1-52.76,.02-.12,.52-2.88,3.88-2.88h29.56c1.49,.07,4.53-.75,5.26-4.33,.52-2.55,.64-3.63,.63-4.15,.11-.44,.22-1.36-.38-2.24Z"/></g><path class="aa" d="M646.08,34.61c-.57-1.32-2.38-1.47-3.69-1.47h-64.3c-1.37,0-4.1,.93-4.62,4.45l-11.3,63.36c-.1,.38-.51,2.26,.59,3.73,.82,1.09,2.2,1.65,4.1,1.65h65.03c.16,0,1.61-.1,2.29-1.29,.52-.91,.4-2.1-.35-3.52-.2-.39-.39-.78-.57-1.17-1.43-3.01-2.92-6.11-9.42-6.11h-42.43s-1.07,.07-1.68-.62c-.65-.74-.57-2.07-.38-3.07,.96-5.23,7.37-41.6,7.44-42.06,.01-.12,.3-2.91,4.32-2.91h42.45c.6,.06,4.07,.18,7.56-3.67,3.57-3.85,4.26-4.71,4.26-4.71h0c.13-.13,1.22-1.34,.69-2.59Z"/></g></g></g></g><g id="d"><g><path id="f" class="x" d="M90.24,0C40.48,0,0,40.47,0,90.22s40.48,90.23,90.24,90.23,90.23-40.48,90.23-90.23S139.99,0,90.24,0h0Zm0,167.76c-42.76,0-77.54-34.78-77.54-77.53S47.48,12.7,90.24,12.7s77.53,34.78,77.53,77.52-34.78,77.53-77.53,77.53h0Z"/><g id="g"><path class="w" d="M90.24,2C41.58,2,2,41.58,2,90.22s39.58,88.23,88.24,88.23,88.23-39.58,88.23-88.23S138.89,2,90.24,2Zm0,167.76c-43.86,0-79.54-35.68-79.54-79.53S46.38,10.7,90.24,10.7s79.53,35.67,79.53,79.52-35.68,79.53-79.53,79.53Z"/></g><path id="j" class="v" d="M161.9,90.22c0,39.58-32.08,71.66-71.66,71.66S18.57,129.8,18.57,90.22,50.66,18.57,90.24,18.57s71.66,32.08,71.66,71.65Z"/><g class="a`"><path class="r" d="M53.5,31.26l.14-.02,.6-3.22-.39,.23c-.5,.29-.99,.59-1.47,.89l-.08,.05-.46,2.38,.3-.05c.45-.08,.91-.16,1.36-.24Z"/><path class="r" d="M59.27,30.31c.14,0,.29-.01,.46-.04,1.55-.22,2.97-.4,4.36-.57,.63-.08,1.07-.26,1.34-.57,.26-.3,.43-.79,.52-1.51,.16-1.29,.32-2.58,.47-3.87,.06-.45,.05-.81,0-1.09l-.05-.23-.22,.08c-.82,.29-1.54,.56-2.19,.82l-1.57,.61,2-.26c.12-.02,.23-.03,.35-.05-.19,1.45-.38,2.9-.56,4.35-1.36,.17-2.75,.35-4.15,.55,.18-1.14,.35-2.27,.52-3.41l.06-.38-.35,.16c-.46,.21-.92,.43-1.38,.65l-.1,.05-.02,.11c-.15,.94-.3,1.88-.45,2.82-.12,.75-.08,1.22,.13,1.48,.16,.21,.44,.31,.84,.31Z"/><path class="r" d="M70.73,23.12l-.57,5.95,.25-.02c.45-.04,.91-.08,1.37-.12h.17l.02-.19c.22-2.47,.44-4.94,.66-7.41l.03-.29-.28,.07c-.9,.23-1.79,.47-2.69,.72l-.14,.04-.14,1.37,.25-.02c.36-.04,.72-.07,1.08-.1Z"/><path class="r" d="M82.43,20.56c-1.42,.05-2.84,.11-4.22,.19-.6,.03-1.04,.2-1.3,.51-.24,.29-.38,.79-.43,1.52l-.25,3.88c-.05,.73,.04,1.22,.27,1.5,.21,.26,.58,.38,1.11,.38,.06,0,.13,0,.2,0,1.43-.07,2.91-.13,4.39-.18,.64-.02,1.08-.17,1.33-.47,.24-.29,.37-.78,.39-1.51l.1-3.88c.02-.73-.08-1.23-.31-1.51-.24-.3-.65-.43-1.28-.41Zm-.28,6.06c-1.41,.04-2.82,.1-4.19,.17l.25-4.37c1.39-.07,2.76-.13,4.08-.18l-.14,4.37Z"/><path class="r" d="M88.57,22.28c0,1.93,0,3.85,0,5.78v.21h.21c.46,0,.92,0,1.38,0h.21v-.27c-.02-2.46-.04-4.93-.07-7.39v-.24l-.24,.04c-.88,.15-1.77,.31-2.65,.48l-.17,.03v.17c0,.22,0,.44,0,.66v.54h.21c.38,0,.75,0,1.13,0Z"/><path class="r" d="M95.95,28.42h0c1.42,.05,2.9,.13,4.39,.22,.08,0,.15,0,.23,0,.53,0,.88-.12,1.08-.38,.23-.28,.31-.77,.26-1.51l-.27-3.93c-.05-.74-.19-1.24-.44-1.54-.25-.31-.69-.48-1.29-.51-1.33-.08-2.71-.14-4.23-.19-.62-.03-1.04,.12-1.28,.41-.23,.28-.32,.78-.3,1.52,.04,1.3,.08,2.61,.12,3.91,.02,.73,.15,1.23,.4,1.52,.25,.3,.69,.46,1.33,.48Zm3.94-5.96c.09,1.48,.18,2.95,.27,4.43-1.34-.08-2.75-.15-4.18-.21l-.17-4.41c1.39,.05,2.76,.11,4.08,.19Z"/><path class="r" d="M103.33,26.91c.06,.73,.21,1.23,.47,1.53,.26,.31,.7,.48,1.33,.54,1.42,.12,2.89,.26,4.38,.42,.13,.01,.25,.02,.36,.02,.46,0,.77-.11,.94-.35,.21-.28,.27-.77,.18-1.52-.15-1.32-.31-2.65-.46-3.97-.09-.74-.25-1.25-.51-1.56-.26-.31-.7-.51-1.3-.57-1.39-.14-2.81-.27-4.21-.39-.63-.05-1.04,.07-1.27,.37-.21,.28-.29,.78-.23,1.53,.11,1.31,.21,2.62,.31,3.94Zm5.45-3.74l.12,1.07c.12,1.13,.25,2.26,.37,3.39-1.46-.15-2.83-.28-4.17-.39-.09-1.02-.17-2.05-.26-3.07l-.12-1.38c1.32,.11,2.69,.24,4.06,.38Z"/><path class="r" d="M115.64,30l.02,.15,.15,.02c.46,.06,.91,.13,1.37,.2l.28,.04-.43-2.91c-.2-1.37-.4-2.73-.61-4.1l-.02-.12-.11-.04c-.62-.24-1.31-.5-2.17-.8h-.32c-.1,0-.2,.01-.3,.02h-.22l.03,.24c.05,.33,.09,.67,.13,1.01l.02,.16,.16,.02c.39,.05,.78,.1,1.17,.15,.28,1.99,.56,3.98,.84,5.98Z"/><path class="r" d="M124.76,31.49l.03,.14,.14,.03c.45,.08,.91,.17,1.36,.26l.3,.06-.06-.3c-.24-1.27-.49-2.55-.73-3.82l-.02-.09-.08-.05c-.48-.27-.95-.54-1.44-.8l-.38-.21,.38,2.07c.17,.9,.33,1.81,.5,2.71Z"/><path class="r" d="M55.64,151.32c-.28-.32-.73-.53-1.35-.64-1.02-.18-2.04-.37-3.06-.56l-1.03-.2,.88,.57c.98,.64,1.95,1.24,2.89,1.78l.07,.02c.13,.02,.26,.05,.39,.07l.03,.19,.08,.05c.47,.27,.95,.54,1.43,.8l.37,.2-.12-.74c-.13-.74-.32-1.25-.59-1.57Z"/><path class="r" d="M62.88,152.08l-.03-.19h-.19c-.89,.05-1.78,.08-2.67,.11h-.23l.05,.35c.04,.29,.09,.59,.13,.89l.02,.15,.15,.02c.4,.06,.8,.12,1.21,.17l.37,2.62,.11,.05c.46,.2,.93,.4,1.41,.59l.33,.13-.05-.35c-.2-1.51-.41-3.02-.62-4.53Z"/><path class="r" d="M75.21,158.98c-.1-1.29-.19-2.59-.29-3.89-.05-.73-.21-1.23-.46-1.53-.26-.31-.69-.48-1.34-.53-1.52-.12-3-.25-4.39-.39-.66-.07-1.09,.04-1.31,.33-.22,.27-.28,.77-.2,1.51l.44,3.99,.13,.04c.45,.15,.9,.29,1.35,.43l.3,.09-.18-1.74c-.1-.98-.21-1.96-.31-2.95,1.42,.14,2.82,.26,4.18,.37l.14,1.69c.07,.89,.15,1.79,.22,2.69-1.2-.09-2.3-.19-3.37-.29l-.08,.41c1.55,.46,3.16,.87,4.78,1.22l.16,.03,.07-.14c.15-.29,.2-.73,.15-1.34h0Z"/><path class="r" d="M81.55,153.66v-.23l-.23,.03c-.91,.12-1.83,.24-2.74,.35l-.19,.02,.07,1.36h.19c.4,.03,.79,.05,1.18,.07l.27,5.95h.19c.44,.03,.89,.04,1.33,.06h.22v-.21c-.1-2.46-.2-4.93-.29-7.39Z"/><path class="r" d="M91.55,153.63c-1.46,.02-2.94,.02-4.4,.01-.65,0-1.08,.13-1.32,.42-.24,.29-.35,.78-.34,1.51l.06,3.86c.01,.72,.13,1.21,.37,1.49,.24,.29,.67,.44,1.29,.45,.34,0,.68,0,1.01,0,1.14,0,2.2,0,3.23-.03,.61-.01,1.04-.17,1.29-.46,.24-.28,.36-.77,.38-1.49l.09-3.85c.02-.73-.09-1.22-.32-1.51-.25-.29-.67-.42-1.32-.42Zm-.18,6c-1.47,.02-2.81,.03-4.09,.02-.01-1.45-.02-2.89-.04-4.34,1.35,.01,2.76,0,4.2-.01l-.07,4.33Z"/><path class="r" d="M100.76,153.3h0c-1.46,.09-2.94,.16-4.4,.21-.63,.02-1.08,.18-1.33,.48-.25,.29-.38,.78-.41,1.51l-.04,1.28c-.03,.85-.06,1.71-.09,2.56-.03,.72,.07,1.21,.3,1.49,.22,.27,.59,.4,1.14,.4,.05,0,.09,0,.14,0,1.41-.06,2.83-.13,4.23-.22,.61-.04,1.04-.21,1.29-.51,.25-.29,.39-.78,.44-1.5,.06-.85,.12-1.71,.19-2.56l.09-1.28c.05-.73-.03-1.22-.25-1.5-.23-.29-.67-.4-1.31-.37Zm-.28,3.37c-.06,.87-.12,1.75-.17,2.62-1.46,.09-2.8,.16-4.09,.21,.06-1.44,.12-2.88,.18-4.32,1.42-.05,2.83-.12,4.2-.2l-.11,1.7Z"/><path class="r" d="M109.71,152.58c-1.41,.15-2.89,.28-4.39,.41-.64,.05-1.07,.22-1.33,.52-.26,.29-.41,.79-.47,1.52l-.31,3.84c-.06,.72,.02,1.21,.23,1.48,.18,.22,.5,.34,.98,.35,2.02-.4,4.04-.9,6.01-1.48l.11-.03,.03-.11c.08-.25,.13-.53,.17-.85,.16-1.28,.31-2.56,.46-3.84,.09-.74,.03-1.22-.18-1.49-.22-.28-.65-.38-1.3-.32Zm-.72,5.99c-1.43,.15-2.77,.28-4.07,.39l.38-4.32c1.39-.12,2.8-.25,4.18-.39l-.49,4.32Z"/><path class="r" d="M114.81,152.4l-.13,.04-.19,1.37,.27-.04c.36-.05,.72-.09,1.09-.14-.18,1.21-.36,2.42-.54,3.63l-.05,.35,.33-.12c.47-.17,.93-.35,1.39-.54l.11-.04,.02-.12c.26-1.67,.52-3.33,.78-5l.05-.33-.32,.1c-.94,.29-1.88,.57-2.81,.84Z"/><path class="r" d="M123.93,151l-.11,.04-.27,1.39,.3-.05c.35-.06,.71-.13,1.06-.19h0c-.04,.23-.09,.45-.13,.68l-.09,.44,.39-.22c.49-.27,.99-.55,1.47-.84l.08-.05,.46-2.29-.34,.12c-.94,.33-1.88,.65-2.82,.97Z"/><path class="r" d="M31.98,50.64c.61-.13,1.06-.36,1.36-.67,.3-.31,.54-.81,.75-1.51l1.39-4.79-.64,.77c-.64,.77-1.29,1.6-1.95,2.46l-.61,2.02-.35,.08c-.2,.04-.39,.09-.59,.13l-.08,.02-.05,.07c-.33,.48-.66,.96-.98,1.45l-.28,.43,1.01-.23c.34-.08,.68-.15,1.02-.23Z"/><path class="r" d="M40.35,48.98l.13-.02,.03-.13c.45-1.75,.89-3.51,1.34-5.26l.63-2.47-.36,.13c-.91,.32-1.83,.64-2.75,.97l-.1,.04-.03,.1c-.09,.32-.18,.65-.26,.98l-.08,.32,.33-.06c.33-.07,.67-.13,1-.19-.49,1.87-.98,3.73-1.46,5.6l-.08,.32,.32-.06c.45-.08,.91-.17,1.36-.25Z"/><path class="r" d="M49.8,41.74l-.32,1.54c-.28,1.35-.57,2.7-.85,4.05l-.06,.29,.29-.04c.46-.07,.92-.13,1.37-.2l.15-.02,1.58-7.8-.33,.1c-.91,.28-1.82,.57-2.74,.86l-.11,.04-.3,1.38,.3-.05c.34-.05,.69-.11,1.03-.16Z"/><path class="r" d="M56.34,46.55c.12,0,.25,0,.4-.03,1.46-.17,2.93-.33,4.38-.48,.63-.06,1.07-.24,1.35-.54,.27-.29,.44-.77,.54-1.49l.52-3.81c.1-.73,.05-1.21-.15-1.48-.21-.29-.62-.4-1.26-.33-1.44,.15-2.86,.31-4.22,.47-.59,.07-1.03,.26-1.31,.57-.27,.29-.46,.78-.59,1.5l-.67,3.82c-.13,.74-.1,1.21,.11,1.47,.17,.22,.46,.33,.89,.33Zm1.44-6.03c1.32-.16,2.69-.31,4.06-.45-.21,1.43-.41,2.85-.61,4.28-1.33,.13-2.73,.29-4.17,.46l.72-4.28Z"/><path class="r" d="M68.59,39.6l-.62,5.85,.25-.02c.46-.03,.92-.07,1.38-.1h.17l.77-7.76-.28,.07c-.9,.22-1.8,.44-2.71,.67l-.14,.03-.15,1.36,.25-.02c.36-.03,.72-.06,1.08-.09Z"/><path class="r" d="M78.21,44.88l1.8-.06v-.19c.12-2.43,.22-4.86,.33-7.28v-.27l-.25,.05c-.89,.18-1.79,.37-2.69,.56l-.15,.03v.16c-.03,.32-.05,.64-.07,.96l-.02,.23,1.34-.05c-.06,1.23-.12,2.45-.19,3.68l-.11,2.18Z"/><path class="r" d="M88.19,38.85v5.87h.22c.46,0,.92,0,1.38,0h.21v-.21c-.03-2.43-.05-4.87-.07-7.3v-.24l-.24,.04c-.89,.15-1.77,.3-2.66,.46l-.17,.03v1.35h.2c.38,0,.75,0,1.13,0Z"/><path class="r" d="M96.76,37.19c-.61-.02-1.04,.12-1.28,.41-.22,.28-.32,.77-.29,1.5l.05,1.28c.04,.85,.07,1.7,.1,2.55,.03,.72,.17,1.21,.41,1.49,.26,.29,.69,.45,1.33,.47,1.47,.05,2.94,.12,4.4,.19,.07,0,.14,0,.21,0,.54,0,.9-.12,1.1-.38,.23-.27,.31-.76,.25-1.49l-.31-3.84c-.06-.72-.21-1.22-.46-1.51-.26-.3-.69-.47-1.3-.5-1.35-.07-2.73-.13-4.24-.18Zm4.56,6.16c-1.48-.07-2.85-.13-4.2-.18l-.07-1.36c-.05-.98-.1-1.97-.14-2.95,1.31,.05,2.65,.1,4.09,.17l.32,4.32Z"/><path class="r" d="M109.12,37.86c-.86,.08-1.73,.17-2.6,.27l-.2,.02,.02,.2c.03,.33,.06,.65,.1,.98l.02,.17,1.34,.1,.65,5.93,.27,.02c.43,.03,.86,.07,1.28,.11l.25,.02-.92-7.84-.2,.02Z"/><path class="r" d="M115.11,44.28c.1,.72,.29,1.22,.56,1.51,.27,.31,.71,.49,1.35,.56,1.5,.17,2.98,.34,4.38,.53,.15,.02,.29,.03,.42,.03,.42,0,.71-.11,.87-.33,.2-.27,.23-.76,.09-1.5l-.71-3.91c-.14-.73-.33-1.23-.6-1.53-.28-.31-.72-.51-1.32-.58-1.33-.17-2.71-.33-4.21-.5-.64-.07-1.05,.04-1.26,.34-.2,.28-.24,.75-.13,1.5l.57,3.88Zm5.18-3.55l.77,4.39c-1.4-.18-2.8-.35-4.16-.5-.22-1.46-.44-2.91-.67-4.37,1.3,.14,2.66,.3,4.06,.48Z"/><path class="r" d="M125.43,40.24l.29,1.38,.14,.02c.39,.06,.79,.12,1.18,.18l1.28,6.04,1.81,.29-.69-3.17c-.34-1.55-.68-3.11-1.02-4.66l-.04-.17h-.17c-.84,.02-1.69,.05-2.54,.08h-.25Z"/><path class="r" d="M134.75,47.12c.18,.73,.41,1.23,.7,1.55,.3,.32,.74,.53,1.36,.65,1.49,.28,2.95,.57,4.34,.86,.22,.04,.41,.07,.57,.07,.34,0,.57-.1,.69-.29,.17-.27,.15-.75-.07-1.52l-1.12-4c-.21-.74-.45-1.26-.74-1.57-.3-.33-.74-.56-1.33-.67-1.26-.26-2.62-.52-4.18-.82-.64-.12-1.04-.03-1.23,.27-.17,.27-.16,.75,.03,1.52l.97,3.97Zm4.68-3.23l1.23,4.48c-1.33-.27-2.67-.54-4.1-.81-.37-1.49-.75-2.97-1.12-4.46,1.42,.27,2.73,.52,4,.78Z"/><path class="r" d="M146.37,45.55l1.9,6.2,.12,.03c.39,.09,.79,.19,1.18,.28l.53,.13-1-3.18-.03-.06c-.65-.93-1.37-1.89-2.12-2.87l-.69-.89v.04l-.07-.1c-.33-.41-.66-.81-.99-1.2l-.06-.07-.51-.02,.42,1.41,1.32,.3Z"/><path class="r" d="M33.03,131.66c-.31-.33-.77-.56-1.37-.69l-.74-.16,.3,.42c.87,1.25,1.77,2.46,2.67,3.59l.68,.85-.74-2.45c-.22-.74-.48-1.25-.78-1.57Z"/><path class="r" d="M43.33,135.1c-.18-.72-.42-1.24-.72-1.56-.3-.32-.75-.53-1.37-.65-1.45-.27-2.9-.54-4.34-.83-.67-.13-1.08-.05-1.26,.24-.17,.27-.14,.75,.08,1.53,.38,1.31,.76,2.61,1.14,3.91l-.25-.27,.61,1.25h0c.13,.28,.26,.49,.41,.64,.15,.16,.34,.3,.57,.42l1.04,.5-.24-.25c1.38,.27,2.76,.53,4.14,.78,.18,.03,.35,.05,.49,.05,.36,0,.6-.1,.73-.32,.17-.27,.16-.75-.04-1.5-.34-1.32-.68-2.64-1.02-3.95Zm-4.65,3.18l-.39-1.38c-.29-1.03-.59-2.06-.88-3.09,1.3,.26,2.64,.52,4.1,.78l.49,1.87c.23,.86,.45,1.71,.68,2.57-1.29-.23-2.63-.49-4-.76Z"/><path class="r" d="M50.26,142.02l.14,.02c.44,.07,.88,.13,1.32,.2l.3,.04-1.75-7.96h-.17c-.88,.03-1.75,.04-2.63,.06h-.26l.06,.25c.08,.33,.15,.66,.23,.99l.03,.14,1.36,.21c.45,1.96,.89,3.93,1.34,5.9l.03,.14Z"/><path class="r" d="M63.22,137.92h0c-.12-.73-.3-1.22-.57-1.52-.28-.31-.72-.49-1.35-.56-1.57-.17-3-.34-4.38-.52-.66-.08-1.08,.02-1.29,.31-.19,.27-.22,.75-.07,1.51l.75,3.9c.14,.72,.34,1.21,.61,1.52,.28,.31,.72,.5,1.31,.57,1.5,.19,2.88,.35,4.22,.49,.12,.01,.24,.02,.35,.02,.44,0,.74-.12,.91-.35,.2-.27,.24-.75,.12-1.49-.2-1.29-.4-2.58-.6-3.87Zm-5.15,3.48l-.81-4.38c1.33,.17,2.7,.33,4.16,.49l.71,4.36c-1.35-.15-2.71-.31-4.06-.47Z"/><path class="r" d="M67.39,138.25c.4,.04,.8,.07,1.2,.1l.74,5.92h.17c.44,.05,.88,.09,1.33,.12l.25,.02-.03-.25c-.29-2.46-.58-4.91-.87-7.36l-.02-.2-.2,.02c-.9,.08-1.8,.16-2.7,.24l-.22,.02,.18,1.36h.17Z"/><path class="r" d="M82.96,139.31c-.04-.72-.18-1.21-.43-1.5-.26-.29-.69-.45-1.33-.48-1.43-.06-2.87-.12-4.4-.21-.65-.04-1.08,.09-1.31,.38-.22,.28-.3,.75-.23,1.5l.12,1.32c.08,.84,.15,1.68,.23,2.52,.06,.72,.22,1.2,.47,1.49,.26,.29,.7,.46,1.3,.49,1.41,.07,2.82,.14,4.23,.19,.05,0,.1,0,.14,0,.55,0,.92-.13,1.13-.4,.22-.28,.31-.76,.27-1.48-.06-1.27-.13-2.55-.19-3.82Zm-5.62,3.79l-.35-4.31c1.39,.08,2.8,.14,4.19,.2,.09,1.43,.17,2.87,.25,4.3-1.35-.05-2.73-.11-4.09-.19Z"/><path class="r" d="M88.38,139.32c.03,1.88,.07,3.77,.11,5.66v.2h.2c.44,0,.88,.01,1.33,.02h.21v-.21c-.03-2.43-.06-4.86-.09-7.29v-.24l-.24,.04c-.85,.14-1.7,.27-2.55,.4l-.38,.06,.03,1.35,1.37,.02Z"/><path class="r" d="M100.9,137.43c-1.56,.05-3.01,.08-4.4,.1-.63,0-1.08,.16-1.33,.45-.24,.28-.37,.77-.38,1.49l-.06,3.8c-.01,.71,.09,1.19,.32,1.48,.23,.28,.63,.41,1.23,.41h.06c1.41-.02,2.82-.06,4.24-.1,.61-.02,1.04-.18,1.29-.47,.24-.28,.38-.77,.42-1.48l.21-3.8c.04-.72-.05-1.21-.28-1.49-.24-.29-.66-.41-1.31-.4Zm-.35,5.93c-1.31,.04-2.65,.07-4.09,.1l.1-4.27c1.4-.02,2.81-.05,4.2-.1l-.21,4.27Z"/><path class="r" d="M111.11,136.94c-1.47,.1-2.93,.18-4.4,.26-.63,.03-1.08,.19-1.34,.49-.26,.29-.41,.78-.46,1.49l-.27,3.8c-.05,.72,.03,1.2,.25,1.47,.2,.26,.56,.38,1.08,.38,.06,0,.13,0,.19,0,1.5-.08,2.88-.16,4.23-.26,.61-.04,1.04-.21,1.3-.5,.26-.29,.42-.77,.5-1.48l.15-1.35c.09-.82,.18-1.63,.27-2.45,.08-.73,.01-1.21-.2-1.49-.23-.28-.65-.4-1.31-.36Zm-.66,5.93c-1.35,.09-2.72,.17-4.08,.25,.11-1.42,.22-2.85,.33-4.27,1.35-.07,2.72-.15,4.19-.25l-.44,4.27Z"/><path class="r" d="M121.31,136.08c-1.39,.14-2.82,.28-4.39,.41-.62,.05-1.07,.23-1.35,.53-.27,.29-.44,.78-.53,1.5l-.48,3.8c-.09,.73-.04,1.2,.17,1.47,.18,.24,.49,.36,.96,.36,.1,0,.2,0,.3-.02,1.41-.12,2.81-.26,4.22-.41,.61-.06,1.04-.24,1.31-.54,.27-.29,.45-.77,.57-1.48l.63-3.8c.12-.74,.09-1.21-.12-1.49-.22-.28-.64-.39-1.29-.32Zm-.98,5.94c-1.35,.14-2.71,.27-4.07,.39,.19-1.42,.38-2.84,.57-4.27,1.39-.12,2.79-.25,4.18-.39-.22,1.42-.45,2.84-.68,4.27Z"/><path class="r" d="M126.91,135.86l-.12,.04-.26,1.37,.28-.04c.36-.04,.72-.09,1.08-.13l-1.15,5.86,.29-.04c.44-.06,.88-.11,1.32-.17l.15-.02,1.58-7.77-.33,.1c-.95,.28-1.89,.55-2.83,.82Z"/><path class="r" d="M136.54,134.51l-.11,.04-.33,1.38,.31-.05c.35-.05,.7-.11,1.05-.17-.46,1.86-.92,3.72-1.37,5.58l-.08,.3,.31-.05c.44-.07,.88-.15,1.32-.22l.13-.02,1.98-7.82-.36,.12c-.95,.31-1.9,.61-2.85,.91Z"/><path class="r" d="M146.13,132.42c-.6,.12-1.06,.33-1.37,.64h0c-.3,.31-.54,.81-.74,1.52-.32,1.14-.64,2.28-.96,3.42l-.39,1.37,.6-.66c.59-.64,1.19-1.32,1.82-2.07l.76-2.56c.25-.05,.5-.1,.75-.15,.24-.05,.49-.1,.73-.15h.08l.05-.08c.35-.46,.7-.92,1.03-1.4l.31-.43-.81,.17c-.62,.13-1.24,.25-1.86,.37Z"/><path class="r" d="M25.3,60.4l1.11-.16-1.07,5.47,1.79-.25,.03-.15c.44-2.27,.87-4.53,1.31-6.8l.06-.33-.33,.09c-.89,.26-1.78,.52-2.67,.78l-.09,.03h0l-.1,.04-.02,.11c-.02,.08-.03,.16-.05,.24h0c-.04,.22-.09,.44-.13,.67l-.06,.29h0l-.15,.78,.37-.81Z"/><path class="r" d="M37.02,58.88l-.9,5.45,.46-.05c.39-.05,.78-.09,1.17-.13l.16-.02,1.17-7.25-.31,.08c-.91,.25-1.82,.49-2.73,.74l-.13,.03-.02,.13c-.05,.3-.1,.6-.15,.9l-.04,.27,.27-.03c.35-.04,.71-.09,1.06-.13Z"/><path class="r" d="M47.22,57.79l.19-.02-.73,5.43,.26-.03c.41-.04,.81-.08,1.22-.12l.3-.03,.02-.16c.3-2.25,.59-4.5,.88-6.75l.04-.3-.5,.12c-.84,.21-1.68,.42-2.51,.63l-.13,.03-.18,1.29,.26-.03c.29-.03,.59-.06,.89-.09Z"/><path class="r" d="M53.74,60.76c-.08,.68,0,1.14,.21,1.39,.19,.22,.52,.33,1,.33,.09,0,.19,0,.29-.01h0c1.44-.11,2.89-.22,4.33-.32,.62-.04,1.06-.2,1.32-.47,.26-.27,.41-.72,.48-1.4l.33-3.53c.06-.67-.01-1.12-.23-1.38-.23-.26-.64-.37-1.27-.33-1.42,.1-2.83,.2-4.25,.31-.6,.05-1.04,.21-1.3,.48-.26,.27-.42,.73-.5,1.38l-.41,3.53Zm2.16-3.86c1.36-.11,2.72-.21,4.09-.3-.13,1.31-.26,2.62-.39,3.94-1.38,.09-2.76,.19-4.14,.3,.15-1.31,.29-2.63,.44-3.94Z"/><path class="r" d="M66.39,56.34l1.35-.07c-.13,1.73-.26,3.45-.39,5.17l-.02,.23,1.78-.09v-.18c.16-2.16,.32-4.33,.47-6.5l.04-.5-.27,.06c-.9,.19-1.8,.38-2.7,.57l-.15,.03v.16c-.03,.3-.06,.59-.08,.89l-.02,.24Z"/><path class="r" d="M75.98,61.3s.1,0,.15,0c1.45-.05,2.9-.09,4.34-.13,.63-.02,1.06-.15,1.31-.43,.25-.27,.38-.72,.4-1.39,.04-1.17,.08-2.35,.12-3.52,.02-.66-.08-1.11-.31-1.38-.24-.26-.65-.39-1.28-.37-1.42,.04-2.84,.08-4.26,.13-.61,.02-1.04,.16-1.29,.44-.25,.27-.39,.72-.42,1.38-.04,.8-.08,1.61-.13,2.41l-.06,1.11c-.04,.67,.06,1.13,.29,1.39,.22,.24,.6,.36,1.15,.36Zm.49-5.55c1.36-.05,2.73-.09,4.1-.12-.05,1.31-.1,2.62-.14,3.93-1.39,.04-2.77,.08-4.15,.12l.2-3.93Z"/><path class="r" d="M88.02,61.03h1.78l.07-7.18-.24,.04c-.89,.15-1.79,.3-2.68,.46l-.17,.03v.17c0,.3-.01,.59-.02,.89v.21h1.34l-.07,5.38Z"/><path class="r" d="M102.27,59.3h0c-.03-1.17-.07-2.35-.1-3.52-.02-.66-.15-1.11-.39-1.38-.25-.27-.67-.41-1.29-.42-1.42-.02-2.84-.04-4.26-.05h-.03c-.6,0-1.01,.13-1.25,.39-.23,.26-.35,.71-.35,1.38,0,1.17,.02,2.34,.02,3.52,0,.67,.12,1.13,.37,1.39,.25,.27,.67,.4,1.31,.4,1.44,0,2.89,.03,4.34,.05,.03,0,.05,0,.08,0,.59,0,1-.13,1.23-.38,.24-.26,.34-.71,.33-1.39Zm-5.9,.1c0-.9-.02-1.8-.03-2.7v-1.23c1.35,.01,2.72,.03,4.09,.05l.09,3.93c-1.39-.02-2.77-.04-4.16-.05Z"/><path class="r" d="M113.34,56.11c-.04-.66-.18-1.11-.43-1.38-.25-.27-.68-.41-1.29-.44-1.42-.05-2.84-.1-4.26-.15-.61-.02-1.04,.1-1.28,.36-.23,.26-.33,.71-.3,1.37,.04,1.17,.09,2.35,.14,3.52,.03,.67,.16,1.13,.41,1.39,.25,.27,.68,.41,1.31,.43,1.45,.04,2.89,.09,4.34,.15,.06,0,.11,0,.17,0,.55,0,.92-.12,1.13-.36,.23-.26,.32-.71,.28-1.39l-.21-3.52Zm-5.67,3.5c-.06-1.31-.11-2.62-.17-3.93,1.37,.04,2.73,.09,4.1,.14,.07,1.31,.15,2.62,.22,3.93-1.38-.05-2.76-.1-4.15-.15Z"/><path class="r" d="M117.49,54.56c-.62-.03-1.04,.08-1.27,.34-.22,.26-.31,.71-.26,1.38,.08,1.17,.16,2.35,.24,3.52,.05,.67,.19,1.13,.45,1.39,.26,.27,.69,.42,1.31,.46,1.45,.08,2.89,.16,4.34,.24,.08,0,.16,0,.23,0,.51,0,.86-.11,1.06-.34,.22-.26,.3-.71,.24-1.39-.11-1.18-.21-2.35-.32-3.53-.06-.66-.21-1.11-.47-1.38-.25-.27-.69-.43-1.3-.46-1.42-.09-2.84-.17-4.26-.24Zm4.61,5.71c-1.38-.08-2.76-.16-4.14-.23-.1-1.31-.19-2.62-.29-3.93,1.36,.07,2.73,.15,4.09,.23,.11,1.31,.23,2.62,.34,3.93Z"/><path class="r" d="M127.83,55.82c.02,.2,.04,.4,.06,.6l.05,.47h.17c.39,.04,.78,.07,1.17,.1l.59,5.42,1.78,.14-.81-7.19-3.03,.26,.02,.21Z"/><path class="r" d="M140.44,63.33l.16,.02c.45,.04,.91,.09,1.36,.13l.26,.03-1.03-7.21h-.19c-.87,.07-1.74,.12-2.61,.18h-.22l.18,1.29,1.34,.13,.76,5.43Z"/><path class="r" d="M148.51,57.59l.04,.23c.05,.3,.1,.6,.15,.9l.03,.15,1.33,.16,.93,5.45,1.79,.22-.05-.28c-.37-2.11-.74-4.23-1.1-6.35l-.11-.62h-.18c-.86,.04-1.73,.08-2.59,.12h-.23Z"/><path class="r" d="M30.92,122.9c-.2-1.22-.4-2.45-.6-3.67-.11-.68-.3-1.16-.57-1.44-.27-.29-.71-.47-1.33-.54-1.44-.16-2.88-.33-4.32-.51-.14-.01-.26-.02-.38-.02h-.31l.11,.28c.16,.4,.32,.8,.49,1.2l.05,.11h.12c1.45,.19,2.9,.36,4.35,.53l.69,4.11c-.72-.08-1.44-.17-2.15-.25l-1.03-.12,.18,.34c.21,.41,.42,.81,.64,1.22l.11,.2,2.58,.3c.13,.01,.26,.02,.37,.02,.43,0,.72-.11,.89-.33h0c.2-.26,.24-.72,.12-1.43Z"/><path class="r" d="M37.2,125.45l.16,.02c.44,.04,.89,.09,1.33,.13l.26,.02-.04-.26c-.33-2.34-.66-4.67-.99-7.01l-.03-.19h-.19c-.89,.08-1.77,.14-2.65,.19l-.23,.02,.2,1.31,.16,.02c.4,.04,.79,.08,1.19,.12l.82,5.64Z"/><path class="r" d="M50.26,126.56c.48,0,.81-.12,1-.35h0c.21-.27,.28-.74,.2-1.43l-.38-3.65c-.07-.69-.23-1.16-.49-1.43-.27-.29-.7-.45-1.32-.49-1.44-.1-2.89-.22-4.33-.33-.64-.05-1.06,.05-1.29,.32-.21,.26-.27,.73-.19,1.43,.15,1.22,.31,2.44,.46,3.66,.09,.69,.26,1.16,.52,1.44,.26,.29,.7,.46,1.31,.51,1.42,.12,2.83,.23,4.25,.33,.09,0,.18,0,.26,0Zm-4.58-2l-.5-4.09c1.38,.11,2.76,.22,4.14,.32l.44,4.09c-1.36-.1-2.72-.21-4.08-.32Z"/><path class="r" d="M53.73,121.37c.12,1.22,.23,2.44,.35,3.65,.07,.69,.22,1.16,.48,1.44,.26,.29,.69,.45,1.3,.48,1.42,.09,2.84,.17,4.26,.25h0c.07,0,.14,0,.2,0,.52,0,.87-.12,1.07-.36,.22-.27,.3-.73,.25-1.43-.09-1.21-.19-2.43-.28-3.65-.06-.69-.21-1.16-.46-1.43-.26-.28-.69-.44-1.32-.47-1.45-.08-2.89-.16-4.34-.25-.64-.03-1.06,.07-1.29,.34-.22,.26-.29,.73-.23,1.43Zm5.87,.07l.33,4.08c-1.37-.07-2.73-.15-4.09-.24l-.38-4.09c1.38,.08,2.76,.17,4.15,.24Z"/><path class="r" d="M67.78,127.55l.62,.02c.3,.01,.6,.02,.9,.03h.23v-.22c-.13-2.32-.26-4.65-.38-6.97v-.22l-.23,.03c-.9,.12-1.8,.23-2.7,.34l-.19,.02v.2c.03,.18,.04,.37,.05,.55l.03,.56,1.36,.05,.32,5.61Z"/><path class="r" d="M76.63,122.03v.19h.2c.39,.01,.77,.02,1.16,.03l.15,5.6,1.75,.03-.06-2.54c-.04-1.55-.07-3.1-.11-4.64v-.23l-.24,.03c-.9,.13-1.81,.27-2.71,.39l-.18,.03,.02,.49c0,.21,.01,.42,.02,.62Z"/><path class="r" d="M86.94,122.34h.21c.38,0,.77,0,1.15,0v5.6h.2c.44,0,.88,0,1.34,0h.21l.04-7.42-.24,.04c-.79,.13-1.58,.26-2.37,.39l-.53,.09v.18c0,.31,0,.61,0,.92v.21Z"/><path class="r" d="M98.65,127.82l1.75-.04v-.2c.06-1.55,.12-3.1,.17-4.64l.09-2.58-.25,.05c-.92,.17-1.83,.34-2.74,.5l-.16,.03-.04,1.31,1.36-.03c-.06,1.79-.11,3.59-.17,5.38v.22Z"/><path class="r" d="M111.5,120.07h0c-1.45,.07-2.89,.12-4.34,.18-.63,.02-1.06,.17-1.32,.45-.25,.27-.39,.74-.43,1.43l-.18,3.64c-.04,.7,.06,1.17,.28,1.43,.21,.26,.59,.38,1.14,.38,.04,0,.09,0,.14,0,1.42-.05,2.84-.11,4.26-.18,.62-.03,1.05-.18,1.3-.47,.25-.28,.4-.75,.45-1.44l.26-3.65c.05-.69-.04-1.16-.26-1.42-.23-.27-.65-.39-1.29-.36Zm-.17,1.63c-.09,1.35-.18,2.7-.27,4.04-1.37,.06-2.73,.12-4.1,.17l.22-4.08c1.38-.05,2.77-.11,4.15-.17v.04Z"/><path class="r" d="M119.51,126.96c.4-.02,.8-.05,1.2-.08h.18l.02-.19c.22-2.33,.44-4.66,.67-6.98l.03-.28-.28,.06c-.92,.21-1.84,.41-2.76,.61l-.15,.03-.03,.38c-.02,.23-.04,.46-.06,.7l-.02,.24,1.35-.08-.51,5.61,.37-.02Z"/><path class="r" d="M132.87,118.67h0c-1.44,.12-2.89,.24-4.33,.36-.62,.05-1.06,.21-1.32,.5-.27,.29-.43,.76-.5,1.44l-.41,3.66c-.08,.7-.01,1.17,.2,1.43,.19,.23,.51,.35,.98,.35,.09,0,.18,0,.28-.01,1.42-.11,2.83-.23,4.25-.35,.62-.05,1.04-.22,1.31-.51,.26-.28,.43-.75,.52-1.45l.48-3.66c.09-.71,.04-1.16-.18-1.42-.22-.27-.64-.38-1.29-.32Zm-.77,5.7c-1.36,.12-2.72,.23-4.08,.34,.16-1.36,.31-2.73,.47-4.09,1.38-.11,2.76-.22,4.13-.34l-.52,4.1Z"/><path class="r" d="M139.41,118.46l-.13,.03-.19,1.33,.26-.03c.36-.04,.73-.07,1.09-.11l-.02,.1c-.26,1.76-.53,3.51-.79,5.27l-.04,.26,1.76-.18,1.15-7.49-.96,.25c-.71,.18-1.41,.37-2.12,.55Z"/><path class="r" d="M153.95,116.42c-1.44,.18-2.88,.36-4.32,.53-.62,.08-1.06,.25-1.33,.54-.27,.28-.46,.75-.58,1.44-.15,.89-.3,1.77-.45,2.66l-.17,1.02c-.12,.72-.09,1.17,.12,1.44,.16,.21,.45,.32,.87,.32,.12,0,.25,0,.39-.03,1.41-.17,2.83-.34,4.24-.52,.61-.08,1.04-.26,1.31-.56,.07-.07,.12-.15,.17-.23h.01l.13-.28s.04-.07,.06-.11h0c.09-.25,.17-.53,.23-.84,.23-1.23,.47-2.46,.7-3.69,.13-.72,.1-1.17-.09-1.43-.21-.27-.62-.36-1.27-.28Zm-1.1,5.73c-1.36,.17-2.71,.34-4.06,.5l.72-4.11c1.37-.16,2.74-.33,4.11-.5-.26,1.37-.51,2.74-.77,4.12Z"/><path class="r" d="M21.4,80.93h0c1.56-.15,3.11-.29,4.67-.43,.67-.06,1.15-.23,1.45-.52,.3-.28,.5-.76,.63-1.45l.66-3.68c.13-.7,.08-1.18-.14-1.44-.22-.27-.67-.37-1.35-.31-1.53,.14-3.06,.27-4.59,.42-.65,.06-1.11,.23-1.41,.52-.29,.29-.5,.76-.64,1.44l-.74,3.68c-.15,.73-.11,1.19,.11,1.45,.18,.22,.5,.32,.98,.32,.12,0,.24,0,.37-.02Zm.52-2.56c.21-1.08,.42-2.17,.64-3.25,1.48-.14,2.95-.28,4.43-.41-.25,1.37-.5,2.74-.75,4.11-1.5,.13-2.99,.27-4.48,.41l.17-.86Z"/><path class="r" d="M38.24,72.22c-1.53,.11-3.06,.23-4.59,.35-.65,.05-1.11,.22-1.4,.5-.29,.28-.49,.75-.6,1.44l-.62,3.67c-.12,.71-.07,1.19,.15,1.45,.19,.23,.53,.34,1.03,.34,.1,0,.21,0,.32-.01,1.56-.12,3.12-.24,4.68-.36,.67-.05,1.14-.21,1.44-.5,.29-.28,.48-.76,.59-1.45l.54-3.67c.1-.7,.04-1.17-.18-1.44-.23-.27-.68-.38-1.36-.33Zm-.9,5.71c-1.5,.11-3,.23-4.49,.35l.68-4.11c1.48-.12,2.96-.23,4.44-.34-.21,1.37-.41,2.73-.62,4.1Z"/><path class="r" d="M45.07,79.07l.25-.02c.49-.03,.98-.06,1.46-.09h.17l.02-.18c.26-2.1,.53-4.2,.79-6.3l.12-.99-.28,.06c-.98,.21-1.95,.42-2.93,.63l-.14,.03-.18,1.32,1.44-.09-.73,5.63Z"/><path class="r" d="M56.2,78.46c.47-.02,.94-.04,1.41-.06h.24l.71-7.46-.27,.05c-.97,.19-1.94,.39-2.92,.58l-.15,.03-.14,1.32,1.44-.07-.56,5.62h.24Z"/><path class="r" d="M71.02,77.5c.27-.28,.43-.76,.47-1.44,.07-1.22,.14-2.43,.21-3.65,.04-.7-.06-1.17-.31-1.44-.25-.27-.71-.4-1.38-.38-1.53,.04-3.06,.09-4.6,.15-.65,.02-1.11,.17-1.39,.45-.27,.28-.43,.75-.48,1.44-.09,1.22-.19,2.44-.29,3.65-.05,.7,.04,1.18,.28,1.44,.23,.25,.62,.37,1.21,.37,.05,0,.11,0,.16,0,1.56-.05,3.12-.11,4.69-.15,.68-.02,1.15-.17,1.42-.44Zm-5.62-5.17c1.48-.05,2.97-.1,4.45-.14-.08,1.36-.16,2.72-.25,4.09-1.5,.04-3.01,.09-4.51,.15l.31-4.09Z"/><path class="r" d="M75.43,77.8s.07,0,.11,0c1.56-.03,3.12-.06,4.69-.08h0c.68-.01,1.15-.15,1.42-.43,.27-.27,.41-.75,.43-1.49,.03-1.2,.07-2.4,.1-3.6,.02-.7-.1-1.17-.35-1.43-.26-.27-.71-.41-1.38-.39-1.53,.02-3.06,.05-4.6,.08-.66,.01-1.11,.16-1.38,.43-.27,.27-.41,.74-.44,1.44l-.18,3.65c-.03,.7,.07,1.17,.32,1.45,.24,.26,.66,.39,1.27,.39Zm.43-5.76c1.49-.03,2.97-.06,4.46-.08l-.12,4.09c-1.5,.02-3.01,.05-4.51,.08l.18-4.08Z"/><path class="r" d="M86.44,77.65c1.56,0,3.12-.01,4.69-.01,.69,0,1.15-.13,1.41-.41,.26-.27,.39-.74,.38-1.44l-.02-3.65c0-.69-.13-1.16-.39-1.43-.26-.27-.72-.41-1.39-.41-1.53,0-3.07,0-4.6,.01-.66,0-1.11,.14-1.37,.42-.26,.27-.39,.74-.4,1.43-.01,.81-.03,1.63-.04,2.44l-.02,1.21c-.01,.7,.11,1.17,.36,1.44,.26,.27,.7,.4,1.36,.4h.03Zm.15-5.75c1.48,0,2.97-.01,4.46-.01v4.08c-1.5,0-3.01,0-4.51,.01l.06-4.08Z"/><path class="r" d="M100.72,70.27l-.65,.09c-.81,.12-1.63,.23-2.45,.35l-.18,.03,.02,1.31h.2c.41,0,.83,0,1.24,.01,.04,1.8,.08,3.61,.13,5.41v.2h.21c.49,0,.98,.01,1.47,.02h.22v-.21c-.07-2.33-.13-4.65-.2-6.98v-.23Z"/><path class="r" d="M110.36,70.69v-.22l-3.28,.43,.03,.56c0,.18,.02,.37,.03,.55v.19l1.45,.03,.29,5.61,1.88,.05v-.22c-.14-2.33-.27-4.66-.4-6.98Z"/><path class="r" d="M124.07,71.44c-.28-.28-.75-.43-1.41-.46-1.53-.07-3.06-.13-4.59-.19-.67-.03-1.11,.09-1.35,.37-.24,.27-.33,.74-.28,1.43,.09,1.22,.18,2.43,.27,3.65,.05,.7,.21,1.17,.48,1.44,.28,.28,.74,.43,1.41,.45,1.56,.06,3.12,.12,4.68,.19,.07,0,.14,0,.21,0,.58,0,.96-.12,1.19-.36,.24-.27,.33-.74,.26-1.45l-.35-3.66c-.06-.69-.23-1.15-.51-1.44Zm-5.5,5.04c-.07-.94-.15-1.88-.22-2.82l-.1-1.27c1.48,.06,2.97,.12,4.45,.18l.11,1.22c.09,.96,.17,1.91,.26,2.87-1.5-.06-3-.13-4.51-.18Z"/><path class="r" d="M128.98,71.71l.14,1.31,1.44,.08,.64,5.63,1.88,.1-.88-7.45-.39,.04c-.88,.09-1.75,.18-2.63,.27l-.21,.02Z"/><path class="r" d="M138.6,72.28c-.23,.27-.29,.74-.19,1.44l.5,3.67c.09,.69,.28,1.16,.57,1.45,.29,.28,.76,.44,1.42,.49,1.56,.11,3.12,.22,4.68,.33,.11,0,.22,.01,.32,.01,.52,0,.87-.11,1.06-.34,.23-.27,.28-.74,.17-1.45-.17-1.08-.34-2.15-.51-3.23l-.07-.44h0c-.11-.69-.3-1.16-.59-1.44-.29-.29-.76-.45-1.42-.5-1.53-.11-3.06-.22-4.59-.33-.67-.04-1.11,.07-1.34,.34Zm6.04,1.58l.63,4.11c-1.5-.11-3-.22-4.5-.32l-.58-4.1c1.48,.1,2.96,.21,4.44,.31Z"/><path class="r" d="M150.85,73.19l.23,1.31,1.44,.12,1,5.65h.16c.49,.05,.98,.1,1.46,.14l.27,.02-1.35-7.48h-.19c-.71,.06-1.43,.12-2.15,.17l-.87,.06Z"/><path class="r" d="M161.48,80.75c-.31-2.35-.73-4.68-1.26-6.92l-.04-.17-2.34,.15,.25,1.31h.15c.43,.05,.86,.09,1.28,.13l1.11,5.66,.87,.09-.03-.26Z"/><path class="r" d="M27.85,109.3c.49,0,.81-.11,1-.33,.22-.27,.27-.74,.15-1.45l-.62-3.68h0c-.12-.69-.32-1.17-.62-1.45-.3-.29-.77-.45-1.44-.51-1.55-.13-3.11-.28-4.67-.42-.68-.06-1.12,.03-1.35,.3-.22,.26-.26,.74-.12,1.44l.7,3.69c.13,.7,.34,1.17,.63,1.45,.29,.29,.75,.46,1.4,.52,1.53,.14,3.05,.28,4.58,.42,.13,.01,.24,.02,.35,.02Zm-5.1-2.11l-.77-4.12c1.49,.14,2.99,.28,4.49,.41l.71,4.12c-1.48-.13-2.95-.26-4.43-.4Z"/><path class="r" d="M35.54,109.94l1.86,.14-1.08-7.47-.19,.02c-.95,.08-1.91,.15-2.86,.23l-.22,.02,.03,.22c.05,.31,.1,.62,.14,.93l.02,.17h.17c.43,.04,.86,.08,1.29,.11,.21,1.4,.42,2.79,.63,4.18l.22,1.46Z"/><path class="r" d="M41.56,104.93l.48,3.66c.09,.69,.27,1.17,.55,1.45,.29,.29,.74,.44,1.39,.48,1.53,.1,3.06,.19,4.59,.28h0c.08,0,.16,0,.24,0,.55,0,.92-.12,1.13-.35,.24-.27,.31-.74,.23-1.45l-.39-3.66c-.08-.69-.25-1.16-.54-1.44-.29-.28-.76-.44-1.43-.47-1.56-.09-3.12-.18-4.68-.28-.68-.05-1.13,.06-1.37,.34-.23,.26-.3,.73-.21,1.44Zm6.32,.1l.46,4.1c-1.48-.08-2.97-.17-4.45-.27l-.52-4.1c1.5,.09,3,.18,4.5,.27Z"/><path class="r" d="M54.26,104.2l.13,1.31h.18c.43,.03,.85,.05,1.28,.07l.51,5.63,1.85,.08-.02-.24c-.2-2.33-.4-4.67-.6-7l-.02-.21-.21,.02c-.96,.11-1.93,.21-2.89,.31l-.21,.02Z"/><path class="r" d="M67.01,111.41v.19l1.86,.05-.41-7.44-.22,.03c-.97,.12-1.94,.24-2.9,.36l-.19,.02,.03,.5c.01,.21,.03,.42,.04,.62v.19h.28c.4,.02,.79,.03,1.19,.04,.11,1.81,.21,3.62,.32,5.43Z"/><path class="r" d="M77.44,111.83h.2c.48,.01,.96,.02,1.44,.02h.21v-.21c-.06-2.33-.12-4.66-.18-6.99v-.23l-.24,.03c-.82,.11-1.63,.23-2.45,.34l-.65,.09,.03,1.11,.03,.2h.2c.41,0,.83,.02,1.24,.02l.16,5.61Z"/><path class="r" d="M88.13,106.3v5.61h.2c.48,0,.96,0,1.44,0h.21v-2.53c.02-1.55,.03-3.11,.04-4.66v-.24l-.63,.1c-.85,.13-1.7,.26-2.54,.39l-.18,.03v.18c0,.31,0,.61,0,.92v.21h1.46Z"/><path class="r" d="M103.69,107.42l.05-1.18c.03-.7-.08-1.17-.33-1.44-.26-.27-.73-.4-1.4-.38-1.56,.03-3.12,.06-4.69,.08-.67,0-1.13,.15-1.39,.42-.27,.27-.4,.74-.42,1.44-.03,1.22-.06,2.43-.09,3.65-.02,.7,.1,1.17,.35,1.44,.24,.27,.67,.4,1.3,.4h.06c1.53-.02,3.06-.05,4.59-.08,.67-.01,1.13-.16,1.4-.44,.26-.27,.41-.76,.45-1.44,.04-.82,.07-1.65,.11-2.47Zm-1.98,2.68c-1.49,.03-2.97,.06-4.46,.08l.11-4.09c1.5-.02,3.01-.04,4.51-.08l-.17,4.09Z"/><path class="r" d="M109.47,111.57h.23c.32-.02,.64-.03,.97-.04l.66-.02,.51-7.45-.7,.13c-.84,.15-1.68,.31-2.52,.46l-.16,.03-.07,1.31h.22c.41-.02,.82-.03,1.23-.04-.07,1.17-.15,2.35-.22,3.52l-.13,2.1Z"/><path class="r" d="M125.3,109.08l.39-3.66c.07-.7,0-1.17-.25-1.44-.25-.27-.7-.38-1.39-.34-1.56,.08-3.12,.16-4.68,.22-.67,.03-1.13,.18-1.41,.46-.28,.28-.44,.75-.5,1.44l-.1,1.22c-.07,.81-.14,1.62-.21,2.44-.06,.7,.03,1.18,.26,1.44,.22,.25,.6,.37,1.15,.37,.06,0,.13,0,.2,0,1.53-.07,3.06-.14,4.59-.22,.66-.03,1.13-.19,1.41-.47,.28-.28,.45-.75,.53-1.45Zm-1.88,.25c-1.48,.08-2.96,.15-4.45,.21l.36-4.1c1.5-.07,3.01-.14,4.51-.22l-.43,4.1Z"/><path class="r" d="M136.52,104.75c.1-.71,.03-1.18-.2-1.44h0c-.24-.27-.69-.38-1.38-.33-1.56,.11-3.12,.21-4.68,.3-.67,.04-1.13,.2-1.41,.48-.28,.28-.46,.75-.54,1.44-.13,1.11-.26,2.21-.38,3.32l-.04,.34c-.08,.71-.01,1.18,.22,1.44,.2,.24,.56,.35,1.09,.35,.08,0,.17,0,.26,0,1.53-.09,3.06-.19,4.59-.29,.65-.04,1.13-.21,1.42-.49,.28-.28,.47-.76,.57-1.45l.5-3.67Zm-2.39,3.94c-1.48,.1-2.96,.19-4.44,.28l.49-4.1c1.5-.09,3-.19,4.5-.29l-.55,4.1Z"/><path class="r" d="M143.06,109.7l1.19-7.49-3.43,.77-.02,.14c-.04,.31-.09,.62-.14,.93l-.04,.26,.26-.02c.4-.03,.8-.06,1.2-.09l-.87,5.65,1.86-.15Z"/><path class="r" d="M156.67,101.19c-1.56,.15-3.11,.3-4.67,.44-.66,.06-1.13,.23-1.43,.51-.29,.29-.49,.76-.62,1.45-.21,1.23-.43,2.45-.65,3.68-.12,.71-.08,1.18,.13,1.45,.18,.22,.51,.33,.98,.33,.11,0,.22,0,.35-.02,1.53-.14,3.06-.29,4.58-.44,.65-.06,1.13-.24,1.43-.53,.3-.29,.51-.76,.65-1.46l.73-3.69c.14-.71,.1-1.18-.12-1.44-.22-.27-.67-.37-1.37-.3Zm-1.14,5.74c-1.48,.14-2.95,.29-4.43,.42,.25-1.37,.5-2.74,.75-4.12,1.49-.14,2.99-.28,4.48-.42l-.8,4.12Z"/><path class="r" d="M23.32,94.39c.33-.03,.66-.05,.99-.08l.65-.05v-7.52l-.25,.06c-.97,.22-1.93,.45-2.9,.67l-.16,.04v1.32l.71-.05c.25-.02,.49-.04,.74-.06v5.68l.22-.02Z"/><path class="r" d="M156.51,86.95c-1.54-.12-3.08-.23-4.63-.34-.67-.04-1.12,.06-1.39,.32h0c-.26,.26-.38,.73-.38,1.43v3.69c0,.7,.12,1.18,.38,1.48,.26,.29,.71,.46,1.37,.51,1.54,.11,3.08,.23,4.63,.34,.12,0,.22,.01,.33,.01,.51,0,.86-.11,1.08-.32,.26-.26,.39-.73,.39-1.44v-3.69c0-.7-.12-1.18-.38-1.47-.26-.29-.71-.46-1.39-.51Zm-.09,5.74c-1.49-.11-2.98-.22-4.47-.33v-4.14c1.49,.11,2.98,.22,4.47,.33v4.14Z"/></g><path id="l" class="s" d="M141.79,84.73h-13.14c-1.38,0-2.62,.57-3.51,1.49-.89-.91-2.13-1.49-3.51-1.49h-13.14c-1.39,0-2.65,.59-3.54,1.53-.9-.94-2.15-1.53-3.55-1.53h-13.14c-1.06,0-2.03,.34-2.84,.91-.37-.42-.9-.7-1.51-.7h-7.23c-.25,0-.48,.05-.7,.13-.22-.08-.45-.13-.7-.13h-7.23c-.18,0-.36,.03-.53,.08-.17-.05-.34-.08-.53-.08h-7.23c-.23,0-.46,.05-.66,.12-.21-.07-.43-.12-.66-.12h-7.23c-.57,0-1.09,.25-1.45,.63-.79-.54-1.74-.85-2.76-.85h-13.14c-2.71,0-4.91,2.2-4.91,4.9v2.37c0,2.7,2.2,4.9,4.91,4.9h13.14c1.61,0,3.02-.79,3.92-1.98v.11c0,1.1,.9,2,2,2h5.53c.61,0,1.15-.28,1.52-.71,.37,.43,.91,.71,1.52,.71h5.53c.54,0,1.02-.21,1.38-.56,.36,.34,.84,.56,1.38,.56h5.53c.63,0,1.19-.3,1.55-.75,.37,.46,.92,.75,1.55,.75h5.53c.71,0,1.32-.37,1.68-.92,.77,.5,1.68,.79,2.66,.79h13.14c1.4,0,2.65-.59,3.55-1.53,.89,.94,2.15,1.53,3.54,1.53h13.14c1.38,0,2.62-.57,3.51-1.49,.89,.91,2.13,1.49,3.51,1.49h13.14c2.71,0,4.91-2.2,4.91-4.9v-2.37c0-2.7-2.2-4.9-4.91-4.9Z"/><g class="ab"><rect id="o" class="y" x="30.95" y="84.73" width="113.75" height="12.16"/></g><path id="q" class="u" d="M90.24,18.57c39.58,0,71.66,32.08,71.66,71.65s-32.08,71.66-71.66,71.66S18.57,129.8,18.57,90.22,50.66,18.57,90.24,18.57m0-2c-40.62,0-73.67,33.04-73.67,73.65s33.05,73.66,73.67,73.66,73.66-33.04,73.66-73.66S130.85,16.57,90.24,16.57h0Z"/></g></g></g></g></svg>